G04*
G04 #@! TF.GenerationSoftware,Altium Limited,Altium Designer,19.1.8 (144)*
G04*
G04 Layer_Color=32896*
%FSLAX25Y25*%
%MOIN*%
G70*
G01*
G75*
%ADD10C,0.01575*%
%ADD14C,0.00500*%
D10*
X125119Y519606D02*
G03*
X125119Y519606I-787J0D01*
G01*
D02*
G03*
X125119Y519606I-787J0D01*
G01*
D14*
X412598Y328661D02*
X459842D01*
Y395905D01*
X412598D02*
X459842D01*
X412598Y328661D02*
Y395905D01*
Y328661D02*
X459842D01*
Y395905D01*
X412598D02*
X459842D01*
X412598Y328661D02*
Y395905D01*
X133781Y269606D02*
Y651496D01*
X393623D01*
Y269606D02*
Y651496D01*
X133781Y269606D02*
X393623D01*
X133781D02*
Y651496D01*
X393623D01*
Y269606D02*
Y651496D01*
X133781Y269606D02*
X393623D01*
X4724Y239823D02*
X51968D01*
X4724Y172579D02*
Y239823D01*
Y172579D02*
X51968D01*
Y239823D01*
X4724D02*
X51968D01*
X4724Y172579D02*
Y239823D01*
Y172579D02*
X51968D01*
Y239823D01*
X412992Y482047D02*
X460236D01*
Y549291D01*
X412992D02*
X460236D01*
X412992Y482047D02*
Y549291D01*
Y482047D02*
X460236D01*
Y549291D01*
X412992D02*
X460236D01*
X412992Y482047D02*
Y549291D01*
X174803Y85118D02*
X222047D01*
X174803Y17874D02*
Y85118D01*
Y17874D02*
X222047D01*
Y85118D01*
X174803D02*
X222047D01*
X174803Y17874D02*
Y85118D01*
Y17874D02*
X222047D01*
Y85118D01*
X174409Y159213D02*
X221654D01*
X174409Y91969D02*
Y159213D01*
Y91969D02*
X221654D01*
Y159213D01*
X174409D02*
X221654D01*
X174409Y91969D02*
Y159213D01*
Y91969D02*
X221654D01*
Y159213D01*
X174803Y233622D02*
X222047D01*
X174803Y166378D02*
Y233622D01*
Y166378D02*
X222047D01*
Y233622D01*
X174803D02*
X222047D01*
X174803Y166378D02*
Y233622D01*
Y166378D02*
X222047D01*
Y233622D01*
X269291Y166772D02*
X316535D01*
Y234016D01*
X269291D02*
X316535D01*
X269291Y166772D02*
Y234016D01*
Y166772D02*
X316535D01*
Y234016D01*
X269291D02*
X316535D01*
X269291Y166772D02*
Y234016D01*
X267717Y91969D02*
X314961D01*
Y159213D01*
X267717D02*
X314961D01*
X267717Y91969D02*
Y159213D01*
Y91969D02*
X314961D01*
Y159213D01*
X267717D02*
X314961D01*
X267717Y91969D02*
Y159213D01*
X267323Y17244D02*
X314567D01*
Y84488D01*
X267323D02*
X314567D01*
X267323Y17244D02*
Y84488D01*
Y17244D02*
X314567D01*
Y84488D01*
X267323D02*
X314567D01*
X267323Y17244D02*
Y84488D01*
X4331Y158740D02*
X51575D01*
X4331Y91496D02*
Y158740D01*
Y91496D02*
X51575D01*
Y158740D01*
X4331D02*
X51575D01*
X4331Y91496D02*
Y158740D01*
Y91496D02*
X51575D01*
Y158740D01*
X464724Y785039D02*
Y832283D01*
X397480D02*
X464724D01*
X397480Y785039D02*
Y832283D01*
Y785039D02*
X464724D01*
Y832283D01*
X397480D02*
X464724D01*
X397480Y785039D02*
Y832283D01*
Y785039D02*
X464724D01*
X386850Y786614D02*
Y833858D01*
X319606D02*
X386850D01*
X319606Y786614D02*
Y833858D01*
Y786614D02*
X386850D01*
Y833858D01*
X319606D02*
X386850D01*
X319606Y786614D02*
Y833858D01*
Y786614D02*
X386850D01*
X412598Y406929D02*
X459842D01*
Y474173D01*
X412598D02*
X459842D01*
X412598Y406929D02*
Y474173D01*
Y406929D02*
X459842D01*
Y474173D01*
X412598D02*
X459842D01*
X412598Y406929D02*
Y474173D01*
X410630Y561575D02*
X457874D01*
Y628819D01*
X410630D02*
X457874D01*
X410630Y561575D02*
Y628819D01*
Y561575D02*
X457874D01*
Y628819D01*
X410630D02*
X457874D01*
X410630Y561575D02*
Y628819D01*
X7087Y319528D02*
X54331D01*
X7087Y252284D02*
Y319528D01*
Y252284D02*
X54331D01*
Y319528D01*
X7087D02*
X54331D01*
X7087Y252284D02*
Y319528D01*
Y252284D02*
X54331D01*
Y319528D01*
M02*
