G04*
G04 #@! TF.GenerationSoftware,Altium Limited,Altium Designer,19.1.8 (144)*
G04*
G04 Layer_Physical_Order=1*
G04 Layer_Color=255*
%FSLAX25Y25*%
%MOIN*%
G70*
G01*
G75*
%ADD12C,0.01968*%
%ADD39C,0.11811*%
%ADD40C,0.10000*%
%ADD41C,0.01500*%
%ADD42C,0.03937*%
%ADD43C,0.07874*%
%ADD44R,0.09567X0.09567*%
%ADD45C,0.09567*%
%ADD46R,0.05543X0.05543*%
%ADD47C,0.05543*%
%ADD48C,0.06102*%
%ADD49R,0.06102X0.06102*%
%ADD50R,0.06693X0.06693*%
%ADD51C,0.06693*%
%ADD52R,0.06693X0.06693*%
%ADD53R,0.07087X0.15748*%
%ADD54R,0.15748X0.07087*%
%ADD55C,0.09449*%
%ADD56C,0.12795*%
%ADD57C,0.05512*%
%ADD58R,0.05512X0.05512*%
%ADD59R,0.09567X0.09567*%
%ADD60P,0.10355X8X202.5*%
%ADD61O,0.07874X0.03937*%
%ADD62O,0.07874X0.03937*%
%ADD63C,0.07000*%
%ADD64C,0.05000*%
%ADD65C,0.15748*%
G36*
X473213Y803D02*
X803Y803D01*
X803Y838666D01*
X473213Y838666D01*
X473213Y803D01*
D02*
G37*
%LPC*%
G36*
X34189Y810170D02*
Y805527D01*
X38831D01*
X38766Y806022D01*
X38189Y807415D01*
X37272Y808610D01*
X36076Y809528D01*
X34683Y810105D01*
X34189Y810170D01*
D02*
G37*
G36*
X32189Y810170D02*
X31695Y810105D01*
X30302Y809528D01*
X29106Y808610D01*
X28189Y807415D01*
X27612Y806022D01*
X27547Y805527D01*
X32189D01*
Y810170D01*
D02*
G37*
G36*
X38831Y803528D02*
X34189D01*
Y798885D01*
X34683Y798950D01*
X36076Y799527D01*
X37272Y800445D01*
X38189Y801641D01*
X38766Y803033D01*
X38831Y803528D01*
D02*
G37*
G36*
X32189D02*
X27547D01*
X27612Y803033D01*
X28189Y801641D01*
X29106Y800445D01*
X30302Y799527D01*
X31695Y798950D01*
X32189Y798885D01*
Y803528D01*
D02*
G37*
G36*
X456886Y798697D02*
X452102D01*
Y793913D01*
X456886D01*
Y798697D01*
D02*
G37*
G36*
X450102D02*
X445319D01*
Y793913D01*
X450102D01*
Y798697D01*
D02*
G37*
G36*
X51181Y803748D02*
X49770Y803609D01*
X48413Y803198D01*
X47163Y802529D01*
X46067Y801630D01*
X45167Y800534D01*
X44499Y799284D01*
X44088Y797927D01*
X43949Y796516D01*
X44088Y795105D01*
X44499Y793748D01*
X45167Y792498D01*
X46067Y791402D01*
X47163Y790502D01*
X48413Y789834D01*
X49770Y789422D01*
X51181Y789283D01*
X52592Y789422D01*
X53949Y789834D01*
X55199Y790502D01*
X56295Y791402D01*
X57195Y792498D01*
X57863Y793748D01*
X58275Y795105D01*
X58414Y796516D01*
X58275Y797927D01*
X57863Y799284D01*
X57195Y800534D01*
X56295Y801630D01*
X55199Y802529D01*
X53949Y803198D01*
X52592Y803609D01*
X51181Y803748D01*
D02*
G37*
G36*
X456886Y791913D02*
X452102D01*
Y787130D01*
X456886D01*
Y791913D01*
D02*
G37*
G36*
X450102D02*
X445319D01*
Y787130D01*
X450102D01*
Y791913D01*
D02*
G37*
G36*
X154860Y791610D02*
X152969D01*
Y786827D01*
X157752D01*
Y788719D01*
X154860Y791610D01*
D02*
G37*
G36*
X150969D02*
X149077D01*
X146185Y788719D01*
Y786827D01*
X150969D01*
Y791610D01*
D02*
G37*
G36*
X251059Y790035D02*
X246276D01*
Y785252D01*
X251059D01*
Y790035D01*
D02*
G37*
G36*
X244276D02*
X239492D01*
Y785252D01*
X244276D01*
Y790035D01*
D02*
G37*
G36*
X223694Y791410D02*
X212527D01*
Y780243D01*
X223694D01*
Y791410D01*
D02*
G37*
G36*
X207158D02*
X195991D01*
Y780243D01*
X207158D01*
Y791410D01*
D02*
G37*
G36*
X174087D02*
X162920D01*
Y780243D01*
X174087D01*
Y791410D01*
D02*
G37*
G36*
X157752Y784827D02*
X152969D01*
Y780043D01*
X154860D01*
X157752Y782935D01*
Y784827D01*
D02*
G37*
G36*
X150969D02*
X146185D01*
Y782935D01*
X149077Y780043D01*
X150969D01*
Y784827D01*
D02*
G37*
G36*
X283930Y789835D02*
X272763D01*
Y778668D01*
X283930D01*
Y789835D01*
D02*
G37*
G36*
X267394D02*
X256228D01*
Y778668D01*
X267394D01*
Y789835D01*
D02*
G37*
G36*
X251059Y783252D02*
X246276D01*
Y778469D01*
X251059D01*
Y783252D01*
D02*
G37*
G36*
X244276D02*
X239492D01*
Y778469D01*
X244276D01*
Y783252D01*
D02*
G37*
G36*
X76181Y785102D02*
X75253Y784980D01*
X74388Y784622D01*
X73645Y784052D01*
X73075Y783309D01*
X72717Y782444D01*
X72594Y781516D01*
X72717Y780587D01*
X73075Y779722D01*
X73645Y778980D01*
X74388Y778410D01*
X75253Y778051D01*
X76181Y777929D01*
X77109Y778051D01*
X77974Y778410D01*
X78717Y778980D01*
X79287Y779722D01*
X79646Y780587D01*
X79768Y781516D01*
X79646Y782444D01*
X79287Y783309D01*
X78717Y784052D01*
X77974Y784622D01*
X77109Y784980D01*
X76181Y785102D01*
D02*
G37*
G36*
X86181Y780102D02*
X85253Y779980D01*
X84388Y779622D01*
X83645Y779052D01*
X83075Y778309D01*
X82717Y777444D01*
X82595Y776516D01*
X82717Y775588D01*
X83075Y774722D01*
X83645Y773980D01*
X84388Y773410D01*
X85253Y773051D01*
X86181Y772929D01*
X87109Y773051D01*
X87974Y773410D01*
X88717Y773980D01*
X89287Y774722D01*
X89645Y775588D01*
X89768Y776516D01*
X89645Y777444D01*
X89287Y778309D01*
X88717Y779052D01*
X87974Y779622D01*
X87109Y779980D01*
X86181Y780102D01*
D02*
G37*
G36*
X76181Y775102D02*
X75253Y774980D01*
X74388Y774622D01*
X73645Y774052D01*
X73075Y773309D01*
X72717Y772444D01*
X72594Y771516D01*
X72717Y770587D01*
X73075Y769723D01*
X73645Y768980D01*
X74388Y768410D01*
X75253Y768051D01*
X76181Y767929D01*
X77109Y768051D01*
X77974Y768410D01*
X78717Y768980D01*
X79287Y769723D01*
X79646Y770587D01*
X79768Y771516D01*
X79646Y772444D01*
X79287Y773309D01*
X78717Y774052D01*
X77974Y774622D01*
X77109Y774980D01*
X76181Y775102D01*
D02*
G37*
G36*
X86181Y790102D02*
X85253Y789980D01*
X84388Y789622D01*
X83645Y789052D01*
X83075Y788309D01*
X82717Y787444D01*
X82595Y786516D01*
X82717Y785588D01*
X83075Y784723D01*
X83645Y783980D01*
X84388Y783410D01*
X85253Y783051D01*
X86181Y782929D01*
X87109Y783051D01*
X87974Y783410D01*
X88717Y783980D01*
X89267Y784696D01*
X95408D01*
X98575Y781530D01*
Y773236D01*
X98040Y772826D01*
X97511Y772137D01*
X97179Y771334D01*
X97065Y770472D01*
X97179Y769611D01*
X97511Y768808D01*
X98040Y768119D01*
X98729Y767590D01*
X99532Y767257D01*
X100394Y767144D01*
X101255Y767257D01*
X102058Y767590D01*
X102747Y768119D01*
X103276Y768808D01*
X103609Y769611D01*
X103722Y770472D01*
X103609Y771334D01*
X103276Y772137D01*
X102747Y772826D01*
X102213Y773236D01*
Y782283D01*
X102213Y782283D01*
X102074Y782980D01*
X101680Y783570D01*
X101680Y783570D01*
X97448Y787802D01*
X96858Y788197D01*
X96161Y788335D01*
X96161Y788335D01*
X89267D01*
X88717Y789052D01*
X87974Y789622D01*
X87109Y789980D01*
X86181Y790102D01*
D02*
G37*
G36*
X157752Y771925D02*
X152969D01*
Y767142D01*
X157752D01*
Y771925D01*
D02*
G37*
G36*
X174287D02*
X169504D01*
Y767142D01*
X174287D01*
Y771925D01*
D02*
G37*
G36*
X167504D02*
X162721D01*
Y767142D01*
X167504D01*
Y771925D01*
D02*
G37*
G36*
X150969D02*
X146185D01*
Y767142D01*
X150969D01*
Y771925D01*
D02*
G37*
G36*
X77181Y765167D02*
Y762516D01*
X79832D01*
X79462Y763410D01*
X78860Y764194D01*
X78075Y764796D01*
X77181Y765167D01*
D02*
G37*
G36*
X75181Y765167D02*
X74287Y764796D01*
X73502Y764194D01*
X72900Y763410D01*
X72530Y762516D01*
X75181D01*
Y765167D01*
D02*
G37*
G36*
X223694Y771725D02*
X212527D01*
Y760558D01*
X223694D01*
Y771725D01*
D02*
G37*
G36*
X190623D02*
X179456D01*
Y760558D01*
X190623D01*
Y771725D01*
D02*
G37*
G36*
X174287Y765142D02*
X169504D01*
Y760358D01*
X174287D01*
Y765142D01*
D02*
G37*
G36*
X167504D02*
X162721D01*
Y760358D01*
X167504D01*
Y765142D01*
D02*
G37*
G36*
X157752D02*
X152969D01*
Y760358D01*
X157752D01*
Y765142D01*
D02*
G37*
G36*
X150969D02*
X146185D01*
Y760358D01*
X150969D01*
Y765142D01*
D02*
G37*
G36*
X75181Y760516D02*
X72530D01*
X72900Y759622D01*
X73502Y758837D01*
X74287Y758235D01*
X75181Y757865D01*
Y760516D01*
D02*
G37*
G36*
X79832D02*
X77181D01*
Y757865D01*
X78075Y758235D01*
X78860Y758837D01*
X79462Y759622D01*
X79832Y760516D01*
D02*
G37*
G36*
X87181Y760167D02*
Y757516D01*
X89832D01*
X89462Y758410D01*
X88860Y759195D01*
X88075Y759796D01*
X87181Y760167D01*
D02*
G37*
G36*
X85181Y760167D02*
X84287Y759796D01*
X83502Y759195D01*
X82900Y758410D01*
X82530Y757516D01*
X85181D01*
Y760167D01*
D02*
G37*
G36*
X79737Y795072D02*
X72625D01*
Y792521D01*
X58556Y778452D01*
X58162Y777861D01*
X58023Y777165D01*
X58023Y777165D01*
Y755044D01*
X57523Y754919D01*
X57195Y755534D01*
X56295Y756630D01*
X55199Y757529D01*
X53949Y758198D01*
X52592Y758609D01*
X51181Y758748D01*
X49770Y758609D01*
X48413Y758198D01*
X47163Y757529D01*
X46067Y756630D01*
X45167Y755534D01*
X44499Y754284D01*
X44088Y752927D01*
X43949Y751516D01*
X44088Y750105D01*
X44499Y748748D01*
X45167Y747498D01*
X46067Y746402D01*
X47163Y745502D01*
X48413Y744834D01*
X49770Y744422D01*
X51181Y744283D01*
X52592Y744422D01*
X53949Y744834D01*
X55199Y745502D01*
X56295Y746402D01*
X57195Y747498D01*
X57523Y748112D01*
X58023Y747987D01*
Y714898D01*
X57538Y714777D01*
X57470Y714904D01*
X56571Y716000D01*
X55475Y716899D01*
X54224Y717568D01*
X52868Y717979D01*
X51457Y718118D01*
X50046Y717979D01*
X48689Y717568D01*
X47438Y716899D01*
X46343Y716000D01*
X45443Y714904D01*
X44775Y713654D01*
X44363Y712297D01*
X44224Y710886D01*
X44363Y709475D01*
X44775Y708118D01*
X45443Y706868D01*
X46343Y705772D01*
X47438Y704872D01*
X48689Y704204D01*
X50046Y703792D01*
X51457Y703653D01*
X52868Y703792D01*
X54224Y704204D01*
X55475Y704872D01*
X56571Y705772D01*
X57470Y706868D01*
X58139Y708118D01*
X58550Y709475D01*
X58689Y710886D01*
X58644Y711346D01*
X59096Y711560D01*
X66056Y704600D01*
X66056Y704599D01*
X66646Y704205D01*
X67343Y704067D01*
X72901D01*
Y702330D01*
X80013D01*
Y709442D01*
X72901D01*
Y707705D01*
X68096D01*
X61662Y714139D01*
Y776412D01*
X73210Y787960D01*
X79737D01*
Y795072D01*
D02*
G37*
G36*
X85181Y755516D02*
X82530D01*
X82900Y754622D01*
X83502Y753837D01*
X84287Y753235D01*
X85181Y752865D01*
Y755516D01*
D02*
G37*
G36*
X89832D02*
X87181D01*
Y752865D01*
X88075Y753235D01*
X88860Y753837D01*
X89462Y754622D01*
X89832Y755516D01*
D02*
G37*
G36*
X413205Y755827D02*
Y752575D01*
X416457D01*
X416439Y752709D01*
X416001Y753767D01*
X415305Y754675D01*
X414397Y755371D01*
X413339Y755809D01*
X413205Y755827D01*
D02*
G37*
G36*
X411205Y755827D02*
X411070Y755809D01*
X410013Y755371D01*
X409105Y754675D01*
X408408Y753767D01*
X407970Y752709D01*
X407952Y752575D01*
X411205D01*
Y755827D01*
D02*
G37*
G36*
X422205Y755757D02*
X421122Y755615D01*
X420114Y755197D01*
X419247Y754532D01*
X418583Y753666D01*
X418165Y752657D01*
X418022Y751575D01*
X418165Y750492D01*
X418377Y749982D01*
X358960Y690565D01*
X250066D01*
X249462Y690445D01*
X248949Y690102D01*
X187352Y628505D01*
X187010Y627993D01*
X186889Y627388D01*
Y508769D01*
X169855Y491735D01*
X169634Y491826D01*
X168702Y491949D01*
X167769Y491826D01*
X166901Y491466D01*
X166155Y490894D01*
X165582Y490148D01*
X165222Y489279D01*
X165099Y488346D01*
X165222Y487414D01*
X165582Y486545D01*
X166155Y485799D01*
X166901Y485227D01*
X167769Y484867D01*
X168668Y484749D01*
X168635Y484248D01*
X163023D01*
X162419Y484128D01*
X161906Y483786D01*
X159855Y481735D01*
X159634Y481826D01*
X158702Y481949D01*
X157769Y481826D01*
X156901Y481466D01*
X156155Y480894D01*
X155582Y480148D01*
X155222Y479279D01*
X155099Y478346D01*
X155222Y477414D01*
X155582Y476545D01*
X156155Y475799D01*
X156901Y475227D01*
X157769Y474867D01*
X158137Y474818D01*
X158311Y474291D01*
X158268Y474249D01*
X126605D01*
X126000Y474128D01*
X125488Y473786D01*
X108426Y456724D01*
X108342Y456758D01*
X107480Y456872D01*
X106619Y456758D01*
X105816Y456426D01*
X105127Y455897D01*
X104598Y455207D01*
X104265Y454405D01*
X104152Y453543D01*
X104265Y452682D01*
X104598Y451879D01*
X105127Y451190D01*
X105816Y450661D01*
X106619Y450328D01*
X107005Y450277D01*
X107073Y449764D01*
X106997Y449733D01*
X106308Y449204D01*
X105779Y448515D01*
X105446Y447712D01*
X105333Y446850D01*
X105446Y445989D01*
X105779Y445186D01*
X106308Y444497D01*
X106997Y443968D01*
X107800Y443635D01*
X108661Y443522D01*
X109523Y443635D01*
X110326Y443968D01*
X111015Y444497D01*
X111544Y445186D01*
X111579Y445270D01*
X137206D01*
X137811Y445390D01*
X138323Y445733D01*
X157548Y464958D01*
X157769Y464867D01*
X158702Y464744D01*
X159634Y464867D01*
X160503Y465227D01*
X161249Y465799D01*
X161822Y466545D01*
X162181Y467414D01*
X162304Y468347D01*
X162181Y469279D01*
X161822Y470148D01*
X161484Y470588D01*
X161731Y471088D01*
X165673D01*
X165920Y470588D01*
X165582Y470148D01*
X165222Y469279D01*
X165099Y468347D01*
X165222Y467414D01*
X165582Y466545D01*
X166155Y465799D01*
X166901Y465227D01*
X167769Y464867D01*
X168702Y464744D01*
X169634Y464867D01*
X170503Y465227D01*
X170943Y465564D01*
X171443Y465318D01*
Y463323D01*
X169855Y461735D01*
X169634Y461826D01*
X168702Y461949D01*
X167769Y461826D01*
X166901Y461466D01*
X166155Y460894D01*
X165582Y460148D01*
X165222Y459279D01*
X165099Y458347D01*
X165222Y457414D01*
X165582Y456545D01*
X166155Y455799D01*
X166901Y455227D01*
X167769Y454867D01*
X168702Y454744D01*
X169634Y454867D01*
X170503Y455227D01*
X171249Y455799D01*
X171822Y456545D01*
X172181Y457414D01*
X172304Y458347D01*
X172181Y459279D01*
X172090Y459500D01*
X174141Y461551D01*
X174484Y462063D01*
X174604Y462668D01*
Y470136D01*
X174484Y470741D01*
X174141Y471254D01*
X171609Y473786D01*
X171097Y474128D01*
X170492Y474249D01*
X169136D01*
X169092Y474291D01*
X169266Y474818D01*
X169634Y474867D01*
X170503Y475227D01*
X171249Y475799D01*
X171822Y476545D01*
X172181Y477414D01*
X172304Y478346D01*
X172181Y479279D01*
X171822Y480148D01*
X171484Y480588D01*
X171730Y481088D01*
X177092D01*
X190118Y468061D01*
X190631Y467718D01*
X191236Y467598D01*
X274715D01*
X275320Y467718D01*
X275833Y468061D01*
X328860Y521088D01*
X355130D01*
Y517010D01*
X263778Y425658D01*
X263435Y425145D01*
X263315Y424540D01*
Y334054D01*
X173386Y244125D01*
X173302Y244160D01*
X172441Y244273D01*
X171580Y244160D01*
X170777Y243827D01*
X170087Y243299D01*
X169558Y242609D01*
X169226Y241806D01*
X169113Y240945D01*
X169226Y240083D01*
X169558Y239281D01*
X170087Y238591D01*
X170777Y238062D01*
X171580Y237730D01*
X172441Y237616D01*
X173302Y237730D01*
X174105Y238062D01*
X174794Y238591D01*
X175323Y239281D01*
X175656Y240083D01*
X175769Y240945D01*
X175656Y241806D01*
X175621Y241890D01*
X266013Y332282D01*
X266355Y332794D01*
X266476Y333399D01*
Y423885D01*
X357365Y514775D01*
X362273D01*
Y516766D01*
X365491D01*
X365582Y516545D01*
X366155Y515799D01*
X366901Y515227D01*
X367769Y514867D01*
X368702Y514744D01*
X369634Y514867D01*
X370503Y515227D01*
X371249Y515799D01*
X371822Y516545D01*
X372182Y517414D01*
X372304Y518347D01*
X372182Y519279D01*
X371822Y520148D01*
X371484Y520588D01*
X371730Y521088D01*
X413213D01*
X415938Y518362D01*
X415426Y517127D01*
X415235Y515669D01*
X415426Y514212D01*
X415989Y512853D01*
X416884Y511687D01*
X418050Y510792D01*
X419409Y510229D01*
X420866Y510038D01*
X422324Y510229D01*
X423682Y510792D01*
X424848Y511687D01*
X425743Y512853D01*
X426306Y514212D01*
X426498Y515669D01*
X426306Y517127D01*
X425743Y518485D01*
X424848Y519652D01*
X423682Y520546D01*
X422324Y521109D01*
X420866Y521301D01*
X419409Y521109D01*
X418173Y520597D01*
X414985Y523786D01*
X414472Y524128D01*
X413867Y524249D01*
X363967D01*
X363775Y524710D01*
X390960Y551895D01*
X391303Y552408D01*
X391423Y553013D01*
Y564700D01*
X403325Y576602D01*
X403749Y576318D01*
X403478Y575665D01*
X403364Y574803D01*
X403478Y573942D01*
X403790Y573188D01*
X403607Y573005D01*
X403264Y572492D01*
X403144Y571888D01*
Y556067D01*
X403060Y556032D01*
X402371Y555503D01*
X401842Y554814D01*
X401509Y554011D01*
X401396Y553150D01*
X401509Y552288D01*
X401842Y551485D01*
X402371Y550796D01*
X403060Y550267D01*
X403863Y549935D01*
X404724Y549821D01*
X405586Y549935D01*
X406389Y550267D01*
X407078Y550796D01*
X407607Y551485D01*
X407939Y552288D01*
X408053Y553150D01*
X407939Y554011D01*
X407607Y554814D01*
X407078Y555503D01*
X406389Y556032D01*
X406305Y556067D01*
Y571108D01*
X406693Y571475D01*
X407554Y571588D01*
X408357Y571921D01*
X409047Y572450D01*
X409576Y573139D01*
X409908Y573942D01*
X410021Y574803D01*
X409908Y575665D01*
X409576Y576467D01*
X409047Y577157D01*
X408357Y577686D01*
X407554Y578018D01*
X406693Y578132D01*
X405831Y578018D01*
X405178Y577747D01*
X404894Y578171D01*
X416646Y589923D01*
X417046Y589757D01*
X418504Y589565D01*
X419962Y589757D01*
X421320Y590320D01*
X422486Y591215D01*
X423381Y592381D01*
X423944Y593739D01*
X424136Y595197D01*
X423944Y596654D01*
X423381Y598013D01*
X422486Y599179D01*
X421320Y600074D01*
X419962Y600637D01*
X418504Y600829D01*
X417046Y600637D01*
X415688Y600074D01*
X414522Y599179D01*
X413627Y598013D01*
X413064Y596654D01*
X412872Y595197D01*
X413064Y593739D01*
X413627Y592381D01*
X414064Y591811D01*
X388725Y566472D01*
X388383Y565959D01*
X388262Y565354D01*
Y553667D01*
X382140Y547545D01*
X381612Y547724D01*
X381561Y548106D01*
X381229Y548908D01*
X380700Y549598D01*
X380011Y550127D01*
X379927Y550161D01*
Y569818D01*
X384488Y574379D01*
X384572Y574344D01*
X385433Y574231D01*
X386295Y574344D01*
X387097Y574677D01*
X387787Y575206D01*
X388316Y575895D01*
X388648Y576698D01*
X388761Y577559D01*
X388648Y578420D01*
X388316Y579223D01*
X387787Y579913D01*
X387097Y580442D01*
X386295Y580774D01*
X385433Y580888D01*
X384572Y580774D01*
X383769Y580442D01*
X383080Y579913D01*
X382551Y579223D01*
X382218Y578420D01*
X382105Y577559D01*
X382218Y576698D01*
X382253Y576614D01*
X377229Y571590D01*
X376886Y571077D01*
X376766Y570472D01*
Y550161D01*
X376682Y550127D01*
X375993Y549598D01*
X375464Y548908D01*
X375131Y548106D01*
X375018Y547244D01*
X375131Y546383D01*
X375464Y545580D01*
X375993Y544890D01*
X376682Y544361D01*
X377485Y544029D01*
X377867Y543979D01*
X378046Y543451D01*
X361143Y526548D01*
X303699D01*
X303094Y526428D01*
X302582Y526086D01*
X251305Y474809D01*
X195831D01*
X195796Y474893D01*
X195267Y475582D01*
X194578Y476111D01*
X193775Y476443D01*
X192913Y476557D01*
X192052Y476443D01*
X191249Y476111D01*
X190560Y475582D01*
X190031Y474893D01*
X189698Y474090D01*
X189648Y473708D01*
X189120Y473529D01*
X178864Y483786D01*
X178351Y484128D01*
X177746Y484248D01*
X168769D01*
X168736Y484749D01*
X169634Y484867D01*
X170503Y485227D01*
X171249Y485799D01*
X171822Y486545D01*
X172181Y487414D01*
X172304Y488346D01*
X172181Y489279D01*
X172090Y489500D01*
X189587Y506997D01*
X189930Y507510D01*
X190050Y508114D01*
Y508129D01*
X190550Y508375D01*
X190855Y508141D01*
X191658Y507809D01*
X192520Y507695D01*
X193381Y507809D01*
X194184Y508141D01*
X194873Y508670D01*
X195402Y509359D01*
X195437Y509443D01*
X216768D01*
X216803Y509359D01*
X217331Y508670D01*
X218021Y508141D01*
X218824Y507809D01*
X219685Y507695D01*
X220547Y507809D01*
X221349Y508141D01*
X222039Y508670D01*
X222568Y509359D01*
X222900Y510162D01*
X223013Y511024D01*
X222900Y511885D01*
X222568Y512688D01*
X222039Y513377D01*
X221349Y513906D01*
X220547Y514239D01*
X219685Y514352D01*
X218824Y514239D01*
X218021Y513906D01*
X217331Y513377D01*
X216803Y512688D01*
X216768Y512604D01*
X195437D01*
X195402Y512688D01*
X194873Y513377D01*
X194184Y513906D01*
X193381Y514239D01*
X192520Y514352D01*
X191658Y514239D01*
X190855Y513906D01*
X190550Y513672D01*
X190050Y513918D01*
Y626733D01*
X233611Y670294D01*
X234040Y670037D01*
X233971Y669811D01*
X233804Y668110D01*
X233971Y666410D01*
X234467Y664775D01*
X235273Y663268D01*
X236357Y661947D01*
X237677Y660863D01*
X239184Y660058D01*
X240819Y659562D01*
X241618Y659483D01*
X340545Y560556D01*
X341566Y559718D01*
X342731Y559095D01*
X343995Y558712D01*
X345310Y558582D01*
X360619D01*
X360766Y558404D01*
X362087Y557320D01*
X363594Y556514D01*
X365229Y556018D01*
X366929Y555851D01*
X368630Y556018D01*
X370265Y556514D01*
X371772Y557320D01*
X373092Y558404D01*
X374176Y559725D01*
X374982Y561232D01*
X375478Y562866D01*
X375645Y564567D01*
X375478Y566267D01*
X374982Y567902D01*
X374176Y569409D01*
X373092Y570730D01*
X371772Y571814D01*
X370265Y572619D01*
X368630Y573115D01*
X366929Y573283D01*
X365229Y573115D01*
X363594Y572619D01*
X362544Y572058D01*
X348101D01*
X251147Y669012D01*
X251068Y669811D01*
X250572Y671446D01*
X249767Y672953D01*
X248683Y674273D01*
X247362Y675357D01*
X245855Y676163D01*
X244220Y676659D01*
X242520Y676826D01*
X240819Y676659D01*
X240593Y676590D01*
X240336Y677019D01*
X250721Y687404D01*
X359614D01*
X360219Y687524D01*
X360732Y687867D01*
X420612Y747747D01*
X421122Y747535D01*
X422205Y747393D01*
X423287Y747535D01*
X424296Y747953D01*
X425162Y748618D01*
X425827Y749484D01*
X426244Y750492D01*
X426387Y751575D01*
X426244Y752657D01*
X425827Y753666D01*
X425162Y754532D01*
X424296Y755197D01*
X423287Y755615D01*
X422205Y755757D01*
D02*
G37*
G36*
X416457Y750575D02*
X413205D01*
Y747323D01*
X413339Y747340D01*
X414397Y747778D01*
X415305Y748475D01*
X416001Y749383D01*
X416439Y750440D01*
X416457Y750575D01*
D02*
G37*
G36*
X411205D02*
X407952D01*
X407970Y750440D01*
X408408Y749383D01*
X409105Y748475D01*
X410013Y747778D01*
X411070Y747340D01*
X411205Y747323D01*
Y750575D01*
D02*
G37*
G36*
X34189Y749146D02*
Y744504D01*
X38831D01*
X38766Y744998D01*
X38189Y746391D01*
X37272Y747587D01*
X36076Y748504D01*
X34683Y749081D01*
X34189Y749146D01*
D02*
G37*
G36*
X32189Y749146D02*
X31695Y749081D01*
X30302Y748504D01*
X29106Y747587D01*
X28189Y746391D01*
X27612Y744998D01*
X27547Y744504D01*
X32189D01*
Y749146D01*
D02*
G37*
G36*
X38831Y742504D02*
X34189D01*
Y737862D01*
X34683Y737927D01*
X36076Y738504D01*
X37272Y739421D01*
X38189Y740617D01*
X38766Y742010D01*
X38831Y742504D01*
D02*
G37*
G36*
X32189D02*
X27547D01*
X27612Y742010D01*
X28189Y740617D01*
X29106Y739421D01*
X30302Y738504D01*
X31695Y737927D01*
X32189Y737862D01*
Y742504D01*
D02*
G37*
G36*
X86181Y770102D02*
X85253Y769980D01*
X84388Y769622D01*
X83645Y769052D01*
X83075Y768309D01*
X82717Y767444D01*
X82595Y766516D01*
X82717Y765588D01*
X83075Y764722D01*
X83645Y763980D01*
X84388Y763410D01*
X85253Y763051D01*
X86181Y762929D01*
X87077Y763047D01*
X102859Y747265D01*
Y736757D01*
X102359Y736510D01*
X102058Y736741D01*
X101255Y737073D01*
X100394Y737187D01*
X99532Y737073D01*
X98729Y736741D01*
X98040Y736212D01*
X97511Y735523D01*
X97179Y734720D01*
X97065Y733858D01*
X97179Y732997D01*
X97511Y732194D01*
X98040Y731505D01*
X98729Y730976D01*
X98813Y730941D01*
Y712328D01*
X89658Y703172D01*
X89159Y703205D01*
X88993Y703422D01*
X88250Y703992D01*
X87385Y704350D01*
X86457Y704472D01*
X85528Y704350D01*
X84663Y703992D01*
X83921Y703422D01*
X83351Y702679D01*
X82992Y701814D01*
X82870Y700886D01*
X82992Y699958D01*
X83351Y699092D01*
X83921Y698350D01*
X84663Y697780D01*
X85528Y697422D01*
X86457Y697299D01*
X87385Y697422D01*
X88250Y697780D01*
X88993Y698350D01*
X89563Y699092D01*
X89655Y699315D01*
X90211Y699426D01*
X90724Y699768D01*
X101511Y710556D01*
X101854Y711068D01*
X101974Y711673D01*
Y730941D01*
X102058Y730976D01*
X102359Y731207D01*
X102859Y730960D01*
Y699861D01*
X87353Y684354D01*
X86457Y684472D01*
X85528Y684350D01*
X84663Y683992D01*
X83921Y683422D01*
X83351Y682679D01*
X82992Y681814D01*
X82870Y680886D01*
X82992Y679957D01*
X83351Y679093D01*
X83921Y678350D01*
X84663Y677780D01*
X85528Y677422D01*
X86457Y677299D01*
X87385Y677422D01*
X88250Y677780D01*
X88993Y678350D01*
X89563Y679093D01*
X89921Y679957D01*
X90043Y680886D01*
X89925Y681782D01*
X105964Y697821D01*
X105964Y697821D01*
X106359Y698411D01*
X106497Y699107D01*
X106497Y699107D01*
Y748019D01*
X106359Y748715D01*
X105964Y749305D01*
X105964Y749305D01*
X89650Y765620D01*
X89768Y766516D01*
X89645Y767444D01*
X89287Y768309D01*
X88717Y769052D01*
X87974Y769622D01*
X87109Y769980D01*
X86181Y770102D01*
D02*
G37*
G36*
X119291Y739059D02*
X118363Y738937D01*
X117498Y738579D01*
X116755Y738008D01*
X116185Y737266D01*
X115827Y736401D01*
X115705Y735472D01*
X115827Y734544D01*
X116185Y733679D01*
X116755Y732936D01*
X117498Y732366D01*
X118363Y732008D01*
X119291Y731886D01*
X120220Y732008D01*
X121085Y732366D01*
X121827Y732936D01*
X122397Y733679D01*
X122756Y734544D01*
X122878Y735472D01*
X122756Y736401D01*
X122397Y737266D01*
X121827Y738008D01*
X121085Y738579D01*
X120220Y738937D01*
X119291Y739059D01*
D02*
G37*
G36*
X190623Y791410D02*
X179456D01*
Y780243D01*
X188388D01*
X193661Y774970D01*
Y752396D01*
X193781Y751792D01*
X194124Y751279D01*
X205506Y739897D01*
Y734020D01*
X205422Y733985D01*
X204733Y733456D01*
X204204Y732767D01*
X203872Y731964D01*
X203758Y731102D01*
X203872Y730241D01*
X204204Y729438D01*
X204733Y728749D01*
X205422Y728220D01*
X206225Y727887D01*
X207087Y727774D01*
X207948Y727887D01*
X208751Y728220D01*
X209440Y728749D01*
X209969Y729438D01*
X210302Y730241D01*
X210415Y731102D01*
X210302Y731964D01*
X209969Y732767D01*
X209440Y733456D01*
X208751Y733985D01*
X208667Y734020D01*
Y740551D01*
X208547Y741156D01*
X208204Y741669D01*
X196822Y753051D01*
Y760558D01*
X207158D01*
Y771725D01*
X196822D01*
Y775625D01*
X196701Y776230D01*
X196359Y776742D01*
X190623Y782478D01*
Y791410D01*
D02*
G37*
G36*
X34465Y724540D02*
Y719898D01*
X39107D01*
X39042Y720392D01*
X38465Y721784D01*
X37547Y722980D01*
X36351Y723898D01*
X34959Y724475D01*
X34465Y724540D01*
D02*
G37*
G36*
X32465Y724540D02*
X31970Y724475D01*
X30578Y723898D01*
X29382Y722980D01*
X28464Y721784D01*
X27887Y720392D01*
X27822Y719898D01*
X32465D01*
Y724540D01*
D02*
G37*
G36*
X39107Y717898D02*
X34465D01*
Y713256D01*
X34959Y713321D01*
X36351Y713897D01*
X37547Y714815D01*
X38465Y716011D01*
X39042Y717403D01*
X39107Y717898D01*
D02*
G37*
G36*
X32465D02*
X27822D01*
X27887Y717403D01*
X28464Y716011D01*
X29382Y714815D01*
X30578Y713897D01*
X31970Y713321D01*
X32465Y713256D01*
Y717898D01*
D02*
G37*
G36*
X417083Y716354D02*
X413736D01*
Y713008D01*
X417083D01*
Y716354D01*
D02*
G37*
G36*
X411736D02*
X408390D01*
Y713008D01*
X411736D01*
Y716354D01*
D02*
G37*
G36*
X422736Y716190D02*
X421654Y716048D01*
X420645Y715630D01*
X419779Y714965D01*
X419114Y714099D01*
X418696Y713090D01*
X418554Y712008D01*
X418696Y710925D01*
X418908Y710415D01*
X417545Y709051D01*
X417083Y709243D01*
Y711008D01*
X413736D01*
Y707661D01*
X415501D01*
X415693Y707199D01*
X350851Y642358D01*
X350508Y641845D01*
X350388Y641240D01*
Y587169D01*
X350304Y587135D01*
X349615Y586606D01*
X349086Y585916D01*
X348753Y585113D01*
X348640Y584252D01*
X348753Y583391D01*
X349086Y582588D01*
X349615Y581898D01*
X350304Y581369D01*
X351107Y581037D01*
X351969Y580924D01*
X352830Y581037D01*
X353633Y581369D01*
X354322Y581898D01*
X354851Y582588D01*
X355184Y583391D01*
X355297Y584252D01*
X355184Y585113D01*
X354851Y585916D01*
X354322Y586606D01*
X353633Y587135D01*
X353549Y587169D01*
Y640586D01*
X421143Y708180D01*
X421654Y707968D01*
X422736Y707826D01*
X423819Y707968D01*
X424827Y708386D01*
X425694Y709051D01*
X426358Y709917D01*
X426776Y710925D01*
X426919Y712008D01*
X426776Y713090D01*
X426358Y714099D01*
X425694Y714965D01*
X424827Y715630D01*
X423819Y716048D01*
X422736Y716190D01*
D02*
G37*
G36*
X411736Y711008D02*
X408390D01*
Y707661D01*
X411736D01*
Y711008D01*
D02*
G37*
G36*
X119291Y709059D02*
X118363Y708937D01*
X117498Y708578D01*
X116755Y708008D01*
X116185Y707266D01*
X115827Y706401D01*
X115705Y705472D01*
X115827Y704544D01*
X116185Y703679D01*
X116755Y702936D01*
X117498Y702366D01*
X118363Y702008D01*
X119291Y701886D01*
X120220Y702008D01*
X121085Y702366D01*
X121827Y702936D01*
X122397Y703679D01*
X122756Y704544D01*
X122878Y705472D01*
X122756Y706401D01*
X122397Y707266D01*
X121827Y708008D01*
X121085Y708578D01*
X120220Y708937D01*
X119291Y709059D01*
D02*
G37*
G36*
X62598Y705297D02*
X61737Y705184D01*
X60934Y704851D01*
X60245Y704322D01*
X59716Y703633D01*
X59383Y702830D01*
X59270Y701968D01*
X59383Y701107D01*
X59716Y700304D01*
X60245Y699615D01*
X60934Y699086D01*
X61737Y698753D01*
X62598Y698640D01*
X63266Y698728D01*
X68005Y693989D01*
X68005Y693989D01*
X68595Y693595D01*
X69291Y693456D01*
X73839D01*
X73921Y693350D01*
X74663Y692780D01*
X75528Y692421D01*
X76457Y692299D01*
X77385Y692421D01*
X78250Y692780D01*
X78993Y693350D01*
X79563Y694093D01*
X79921Y694957D01*
X80043Y695886D01*
X79921Y696814D01*
X79563Y697679D01*
X78993Y698422D01*
X78250Y698992D01*
X77385Y699350D01*
X76457Y699472D01*
X75528Y699350D01*
X74663Y698992D01*
X73921Y698422D01*
X73351Y697679D01*
X73109Y697095D01*
X70045D01*
X65839Y701301D01*
X65927Y701968D01*
X65813Y702830D01*
X65481Y703633D01*
X64952Y704322D01*
X64263Y704851D01*
X63460Y705184D01*
X62598Y705297D01*
D02*
G37*
G36*
X86457Y694472D02*
X85528Y694350D01*
X84663Y693992D01*
X83921Y693422D01*
X83351Y692679D01*
X82992Y691814D01*
X82870Y690886D01*
X82992Y689958D01*
X83351Y689092D01*
X83921Y688350D01*
X84663Y687780D01*
X85528Y687422D01*
X86457Y687299D01*
X87385Y687422D01*
X88250Y687780D01*
X88993Y688350D01*
X89563Y689092D01*
X89921Y689958D01*
X90043Y690886D01*
X89921Y691814D01*
X89563Y692679D01*
X88993Y693422D01*
X88250Y693992D01*
X87385Y694350D01*
X86457Y694472D01*
D02*
G37*
G36*
X76457Y689472D02*
X75528Y689350D01*
X74663Y688992D01*
X73921Y688422D01*
X73351Y687679D01*
X72992Y686814D01*
X72870Y685886D01*
X72992Y684958D01*
X73351Y684093D01*
X73921Y683350D01*
X74663Y682780D01*
X75528Y682421D01*
X76457Y682299D01*
X77385Y682421D01*
X78250Y682780D01*
X78993Y683350D01*
X79563Y684093D01*
X79921Y684958D01*
X80043Y685886D01*
X79921Y686814D01*
X79563Y687679D01*
X78993Y688422D01*
X78250Y688992D01*
X77385Y689350D01*
X76457Y689472D01*
D02*
G37*
G36*
X442736Y716190D02*
X441654Y716048D01*
X440645Y715630D01*
X439779Y714965D01*
X439114Y714099D01*
X438696Y713090D01*
X438554Y712008D01*
X438696Y710925D01*
X439114Y709917D01*
X439779Y709051D01*
X440645Y708386D01*
X441654Y707968D01*
X442736Y707826D01*
X443819Y707968D01*
X444329Y708180D01*
X447238Y705271D01*
Y680517D01*
X446738Y680348D01*
X446383Y680812D01*
X445516Y681476D01*
X444508Y681894D01*
X443425Y682037D01*
X442343Y681894D01*
X441334Y681476D01*
X440468Y680812D01*
X439803Y679946D01*
X439386Y678937D01*
X439243Y677854D01*
X439386Y676772D01*
X439597Y676261D01*
X409011Y645675D01*
X404492D01*
X404457Y645759D01*
X403928Y646448D01*
X403239Y646977D01*
X402436Y647310D01*
X401575Y647423D01*
X400713Y647310D01*
X399911Y646977D01*
X399221Y646448D01*
X398692Y645759D01*
X398360Y644956D01*
X398246Y644095D01*
X398360Y643233D01*
X398692Y642430D01*
X399221Y641741D01*
X399911Y641212D01*
X400713Y640879D01*
X401575Y640766D01*
X402436Y640879D01*
X403239Y641212D01*
X403928Y641741D01*
X404457Y642430D01*
X404492Y642514D01*
X409665D01*
X410270Y642634D01*
X410783Y642977D01*
X441832Y674026D01*
X442343Y673815D01*
X443425Y673672D01*
X444508Y673815D01*
X445516Y674232D01*
X446383Y674897D01*
X446738Y675361D01*
X447238Y675191D01*
Y293075D01*
X447155Y293040D01*
X446465Y292511D01*
X445936Y291822D01*
X445821Y291542D01*
X445321Y291642D01*
Y339685D01*
X445191Y341000D01*
X444808Y342264D01*
X444797Y342284D01*
X444808Y342303D01*
X445191Y343567D01*
X445321Y344882D01*
Y402441D01*
X445321Y402441D01*
X445242Y403240D01*
Y419673D01*
X445321Y420472D01*
X445321Y420472D01*
Y477953D01*
Y555118D01*
X445321Y555118D01*
X445191Y556433D01*
X444808Y557697D01*
X444185Y558861D01*
X443347Y559883D01*
X443347Y559883D01*
X424087Y579142D01*
Y580780D01*
X422270D01*
X422247Y580799D01*
X421082Y581422D01*
X419818Y581805D01*
X418504Y581935D01*
X417189Y581805D01*
X415925Y581422D01*
X414760Y580799D01*
X414737Y580780D01*
X412921D01*
Y578963D01*
X412901Y578940D01*
X412279Y577775D01*
X411895Y576511D01*
X411766Y575197D01*
X411895Y573882D01*
X412279Y572618D01*
X412901Y571453D01*
X412921Y571430D01*
Y569613D01*
X414559D01*
X431845Y552327D01*
Y493586D01*
X431383Y493395D01*
X426450Y498328D01*
Y501253D01*
X422440D01*
X422003Y501385D01*
X420866Y501497D01*
X419729Y501385D01*
X419292Y501253D01*
X415283D01*
Y497243D01*
X415150Y496806D01*
X415038Y495669D01*
X415150Y494532D01*
X415283Y494095D01*
Y490086D01*
X418208D01*
X431845Y476449D01*
Y427289D01*
X420472D01*
X419158Y427160D01*
X417894Y426776D01*
X416729Y426154D01*
X416706Y426135D01*
X414889D01*
Y424318D01*
X414870Y424295D01*
X414247Y423130D01*
X413864Y421866D01*
X413734Y420551D01*
X413864Y419237D01*
X414247Y417973D01*
X414870Y416808D01*
X414889Y416785D01*
Y414968D01*
X416706D01*
X416729Y414949D01*
X417894Y414326D01*
X419158Y413943D01*
X420472Y413813D01*
X431766D01*
Y402520D01*
X431845Y401720D01*
Y349021D01*
X420472D01*
X419158Y348892D01*
X417894Y348509D01*
X416729Y347886D01*
X416706Y347867D01*
X414889D01*
Y346050D01*
X414870Y346027D01*
X414247Y344862D01*
X413864Y343598D01*
X413734Y342284D01*
X413864Y340969D01*
X414247Y339705D01*
X414870Y338540D01*
X414889Y338517D01*
Y336700D01*
X416706D01*
X416729Y336681D01*
X417894Y336058D01*
X419158Y335675D01*
X420472Y335545D01*
X431845D01*
Y131925D01*
X322012Y22092D01*
X284646D01*
X283331Y21963D01*
X282067Y21579D01*
X281324Y21182D01*
X135879D01*
X47822Y109239D01*
X46939Y109964D01*
X45931Y110503D01*
X44838Y110834D01*
X43701Y110946D01*
X42564Y110834D01*
X41471Y110503D01*
X40463Y109964D01*
X39580Y109239D01*
X38855Y108356D01*
X38316Y107348D01*
X37985Y106255D01*
X37873Y105118D01*
X37985Y103981D01*
X38316Y102888D01*
X38855Y101880D01*
X39580Y100997D01*
X129343Y11233D01*
X130227Y10509D01*
X131234Y9970D01*
X132328Y9638D01*
X133465Y9526D01*
X281324D01*
X282067Y9129D01*
X283331Y8746D01*
X284646Y8616D01*
X324803D01*
X326118Y8746D01*
X327382Y9129D01*
X328547Y9752D01*
X329568Y10590D01*
X443347Y124369D01*
X443347Y124369D01*
X444185Y125391D01*
X444808Y126555D01*
X445191Y127819D01*
X445321Y129134D01*
Y288673D01*
X445821Y288773D01*
X445936Y288493D01*
X446465Y287804D01*
X447155Y287275D01*
X447957Y286942D01*
X448819Y286829D01*
X449680Y286942D01*
X450483Y287275D01*
X451172Y287804D01*
X451701Y288493D01*
X452034Y289296D01*
X452147Y290158D01*
X452034Y291019D01*
X451701Y291822D01*
X451172Y292511D01*
X450483Y293040D01*
X450399Y293075D01*
Y705925D01*
X450279Y706530D01*
X449936Y707043D01*
X446564Y710415D01*
X446776Y710925D01*
X446918Y712008D01*
X446776Y713090D01*
X446358Y714099D01*
X445693Y714965D01*
X444827Y715630D01*
X443819Y716048D01*
X442736Y716190D01*
D02*
G37*
G36*
X417772Y682201D02*
X414425D01*
Y678854D01*
X417772D01*
Y682201D01*
D02*
G37*
G36*
X412425D02*
X409079D01*
Y678854D01*
X412425D01*
Y682201D01*
D02*
G37*
G36*
X77457Y679537D02*
Y676886D01*
X80108D01*
X79738Y677780D01*
X79135Y678565D01*
X78351Y679167D01*
X77457Y679537D01*
D02*
G37*
G36*
X75457D02*
X74563Y679167D01*
X73778Y678565D01*
X73176Y677780D01*
X72806Y676886D01*
X75457D01*
Y679537D01*
D02*
G37*
G36*
X128740Y683353D02*
X127618Y683205D01*
X126572Y682772D01*
X125673Y682083D01*
X124984Y681184D01*
X124551Y680138D01*
X124403Y679016D01*
X124551Y677893D01*
X124984Y676847D01*
X125673Y675949D01*
X126572Y675260D01*
X127618Y674826D01*
X128740Y674679D01*
X129863Y674826D01*
X130909Y675260D01*
X131807Y675949D01*
X132496Y676847D01*
X132930Y677893D01*
X133077Y679016D01*
X132930Y680138D01*
X132496Y681184D01*
X131807Y682083D01*
X130909Y682772D01*
X129863Y683205D01*
X128740Y683353D01*
D02*
G37*
G36*
X423194Y802402D02*
X311452D01*
X310847Y802282D01*
X310334Y801939D01*
X297952Y789557D01*
X297674Y789835D01*
X292090D01*
X289298Y787044D01*
Y781460D01*
X292090Y778668D01*
X297674D01*
X300465Y781460D01*
Y787044D01*
X300187Y787322D01*
X312106Y799241D01*
X329473D01*
X329634Y798768D01*
X329246Y798470D01*
X328351Y797304D01*
X327895Y796203D01*
X323726D01*
X323003Y796108D01*
X322330Y795829D01*
X321751Y795386D01*
X296516Y770150D01*
X289298D01*
Y759807D01*
X287055D01*
X283930Y762932D01*
Y770150D01*
X272763D01*
Y758984D01*
X279981D01*
X283432Y755532D01*
X283241Y755070D01*
X275257D01*
X267394Y762932D01*
Y770150D01*
X256228D01*
Y758984D01*
X263445D01*
X271634Y750795D01*
X271442Y750333D01*
X263458D01*
X250859Y762932D01*
Y770150D01*
X239692D01*
Y758984D01*
X246910D01*
X260327Y745566D01*
X260905Y745123D01*
X261579Y744844D01*
X262302Y744748D01*
X365730D01*
X366453Y744844D01*
X367126Y745123D01*
X367704Y745566D01*
X409621Y787483D01*
X409645Y787474D01*
X411102Y787282D01*
X412560Y787474D01*
X413918Y788036D01*
X415085Y788931D01*
X415979Y790098D01*
X416542Y791456D01*
X416734Y792913D01*
X416542Y794371D01*
X415979Y795729D01*
X415085Y796896D01*
X413918Y797790D01*
X412560Y798353D01*
X411102Y798545D01*
X409645Y798353D01*
X408287Y797790D01*
X407120Y796896D01*
X406225Y795729D01*
X405663Y794371D01*
X405471Y792913D01*
X405663Y791456D01*
X405672Y791432D01*
X364573Y750333D01*
X333676D01*
X333485Y750795D01*
X371594Y788905D01*
X378812D01*
Y799241D01*
X422540D01*
X426174Y795606D01*
X425663Y794371D01*
X425471Y792913D01*
X425663Y791456D01*
X426225Y790098D01*
X427120Y788931D01*
X428287Y788036D01*
X429522Y787525D01*
Y755721D01*
X428058D01*
Y747428D01*
X431156D01*
Y715841D01*
X430645Y715630D01*
X429779Y714965D01*
X429114Y714099D01*
X428696Y713090D01*
X428554Y712008D01*
X428696Y710925D01*
X429114Y709917D01*
X429779Y709051D01*
X430645Y708386D01*
X431500Y708032D01*
Y681545D01*
X431334Y681476D01*
X430468Y680812D01*
X429803Y679946D01*
X429386Y678937D01*
X429243Y677854D01*
X429386Y676772D01*
X429597Y676261D01*
X413184Y659848D01*
X401736D01*
X401701Y659932D01*
X401172Y660621D01*
X400483Y661150D01*
X399680Y661483D01*
X398819Y661596D01*
X397957Y661483D01*
X397155Y661150D01*
X396465Y660621D01*
X395936Y659932D01*
X395604Y659129D01*
X395490Y658268D01*
X395604Y657406D01*
X395936Y656603D01*
X396465Y655914D01*
X397155Y655385D01*
X397957Y655053D01*
X398819Y654939D01*
X399680Y655053D01*
X400483Y655385D01*
X401172Y655914D01*
X401701Y656603D01*
X401736Y656687D01*
X413839D01*
X414443Y656808D01*
X414956Y657150D01*
X431832Y674026D01*
X432343Y673815D01*
X433425Y673672D01*
X434508Y673815D01*
X435516Y674232D01*
X436382Y674897D01*
X437047Y675763D01*
X437465Y676772D01*
X437607Y677854D01*
X437465Y678937D01*
X437047Y679946D01*
X436382Y680812D01*
X435516Y681476D01*
X434661Y681831D01*
Y708317D01*
X434827Y708386D01*
X435694Y709051D01*
X436358Y709917D01*
X436776Y710925D01*
X436918Y712008D01*
X436776Y713090D01*
X436358Y714099D01*
X435694Y714965D01*
X434827Y715630D01*
X434317Y715841D01*
Y747428D01*
X436351D01*
Y755721D01*
X432683D01*
Y787525D01*
X433918Y788036D01*
X435084Y788931D01*
X435980Y790098D01*
X436542Y791456D01*
X436734Y792913D01*
X436542Y794371D01*
X435980Y795729D01*
X435084Y796896D01*
X433918Y797790D01*
X432560Y798353D01*
X431102Y798545D01*
X429645Y798353D01*
X428409Y797841D01*
X424312Y801939D01*
X423799Y802282D01*
X423194Y802402D01*
D02*
G37*
G36*
X423425Y682037D02*
X422343Y681894D01*
X421334Y681476D01*
X420468Y680812D01*
X419803Y679946D01*
X419385Y678937D01*
X419243Y677854D01*
X419385Y676772D01*
X419803Y675763D01*
X420468Y674897D01*
X421334Y674232D01*
X422343Y673815D01*
X423425Y673672D01*
X424508Y673815D01*
X425516Y674232D01*
X426382Y674897D01*
X427047Y675763D01*
X427465Y676772D01*
X427607Y677854D01*
X427465Y678937D01*
X427047Y679946D01*
X426382Y680812D01*
X425516Y681476D01*
X424508Y681894D01*
X423425Y682037D01*
D02*
G37*
G36*
X417772Y676854D02*
X414425D01*
Y673508D01*
X417772D01*
Y676854D01*
D02*
G37*
G36*
X412425D02*
X409079D01*
Y673508D01*
X412425D01*
Y676854D01*
D02*
G37*
G36*
X80108Y674886D02*
X77457D01*
Y672235D01*
X78351Y672605D01*
X79135Y673207D01*
X79738Y673992D01*
X80108Y674886D01*
D02*
G37*
G36*
X75457D02*
X72806D01*
X73176Y673992D01*
X73778Y673207D01*
X74563Y672605D01*
X75457Y672235D01*
Y674886D01*
D02*
G37*
G36*
X87457Y674537D02*
Y671886D01*
X90108D01*
X89737Y672780D01*
X89135Y673565D01*
X88351Y674167D01*
X87457Y674537D01*
D02*
G37*
G36*
X85457D02*
X84562Y674167D01*
X83778Y673565D01*
X83176Y672780D01*
X82806Y671886D01*
X85457D01*
Y674537D01*
D02*
G37*
G36*
X129740Y673423D02*
Y670016D01*
X133147D01*
X133124Y670190D01*
X132671Y671285D01*
X131950Y672225D01*
X131010Y672947D01*
X129915Y673400D01*
X129740Y673423D01*
D02*
G37*
G36*
X127740Y673423D02*
X127565Y673400D01*
X126471Y672947D01*
X125531Y672225D01*
X124809Y671285D01*
X124356Y670190D01*
X124333Y670016D01*
X127740D01*
Y673423D01*
D02*
G37*
G36*
X90108Y669886D02*
X87457D01*
Y667235D01*
X88351Y667605D01*
X89135Y668207D01*
X89737Y668992D01*
X90108Y669886D01*
D02*
G37*
G36*
X85457D02*
X82806D01*
X83176Y668992D01*
X83778Y668207D01*
X84562Y667605D01*
X85457Y667235D01*
Y669886D01*
D02*
G37*
G36*
X127740Y668016D02*
X124333D01*
X124356Y667841D01*
X124809Y666746D01*
X125531Y665806D01*
X126471Y665085D01*
X127565Y664632D01*
X127740Y664609D01*
Y668016D01*
D02*
G37*
G36*
X133147D02*
X129740D01*
Y664609D01*
X129915Y664632D01*
X131010Y665085D01*
X131950Y665806D01*
X132671Y666746D01*
X133124Y667841D01*
X133147Y668016D01*
D02*
G37*
G36*
X34465Y663516D02*
Y658874D01*
X39107D01*
X39042Y659368D01*
X38465Y660761D01*
X37547Y661957D01*
X36351Y662874D01*
X34959Y663451D01*
X34465Y663516D01*
D02*
G37*
G36*
X32465Y663516D02*
X31970Y663451D01*
X30578Y662874D01*
X29382Y661957D01*
X28464Y660761D01*
X27887Y659368D01*
X27822Y658874D01*
X32465D01*
Y663516D01*
D02*
G37*
G36*
X51457Y673118D02*
X50046Y672979D01*
X48689Y672568D01*
X47438Y671899D01*
X46343Y671000D01*
X45443Y669904D01*
X44775Y668654D01*
X44363Y667297D01*
X44224Y665886D01*
X44363Y664475D01*
X44775Y663118D01*
X45443Y661868D01*
X46343Y660772D01*
X47438Y659872D01*
X48689Y659204D01*
X50046Y658792D01*
X51457Y658653D01*
X52868Y658792D01*
X54224Y659204D01*
X55475Y659872D01*
X56571Y660772D01*
X57470Y661868D01*
X58139Y663118D01*
X58550Y664475D01*
X58689Y665886D01*
X58550Y667297D01*
X58139Y668654D01*
X57470Y669904D01*
X56571Y671000D01*
X55475Y671899D01*
X54224Y672568D01*
X52868Y672979D01*
X51457Y673118D01*
D02*
G37*
G36*
X39107Y656874D02*
X34465D01*
Y652232D01*
X34959Y652297D01*
X36351Y652874D01*
X37547Y653791D01*
X38465Y654987D01*
X39042Y656380D01*
X39107Y656874D01*
D02*
G37*
G36*
X32465D02*
X27822D01*
X27887Y656380D01*
X28464Y654987D01*
X29382Y653791D01*
X30578Y652874D01*
X31970Y652297D01*
X32465Y652232D01*
Y656874D01*
D02*
G37*
G36*
X162473Y642118D02*
X159702D01*
Y639347D01*
X162473D01*
Y642118D01*
D02*
G37*
G36*
X157702D02*
X154930D01*
Y639347D01*
X157702D01*
Y642118D01*
D02*
G37*
G36*
X162473Y637347D02*
X159702D01*
Y634575D01*
X162473D01*
Y637347D01*
D02*
G37*
G36*
X157702D02*
X154930D01*
Y634575D01*
X157702D01*
Y637347D01*
D02*
G37*
G36*
X159702Y632015D02*
Y629347D01*
X162370D01*
X161996Y630249D01*
X161392Y631036D01*
X160604Y631641D01*
X159702Y632015D01*
D02*
G37*
G36*
X157702D02*
X156800Y631641D01*
X156012Y631036D01*
X155407Y630249D01*
X155034Y629347D01*
X157702D01*
Y632015D01*
D02*
G37*
G36*
X162370Y627347D02*
X159702D01*
Y624678D01*
X160604Y625052D01*
X161392Y625657D01*
X161996Y626444D01*
X162370Y627347D01*
D02*
G37*
G36*
X157702D02*
X155034D01*
X155407Y626444D01*
X156012Y625657D01*
X156800Y625052D01*
X157702Y624678D01*
Y627347D01*
D02*
G37*
G36*
X45685Y625409D02*
X42142D01*
Y617535D01*
X45685D01*
Y625409D01*
D02*
G37*
G36*
X40142D02*
X36598D01*
Y617535D01*
X40142D01*
Y625409D01*
D02*
G37*
G36*
X419504Y620899D02*
Y616197D01*
X424206D01*
X424138Y616707D01*
X423556Y618114D01*
X422629Y619322D01*
X421421Y620249D01*
X420014Y620831D01*
X419504Y620899D01*
D02*
G37*
G36*
X417504Y620899D02*
X416994Y620831D01*
X415587Y620249D01*
X414379Y619322D01*
X413452Y618114D01*
X412869Y616707D01*
X412802Y616197D01*
X417504D01*
Y620899D01*
D02*
G37*
G36*
X424206Y614197D02*
X419504D01*
Y609495D01*
X420014Y609562D01*
X421421Y610145D01*
X422629Y611072D01*
X423556Y612280D01*
X424138Y613687D01*
X424206Y614197D01*
D02*
G37*
G36*
X417504D02*
X412802D01*
X412869Y613687D01*
X413452Y612280D01*
X414379Y611072D01*
X415587Y610145D01*
X416994Y609562D01*
X417504Y609495D01*
Y614197D01*
D02*
G37*
G36*
X68320Y625209D02*
X59633D01*
Y607861D01*
X68320D01*
Y625209D01*
D02*
G37*
G36*
X45685Y615535D02*
X42142D01*
Y607661D01*
X45685D01*
Y615535D01*
D02*
G37*
G36*
X40142D02*
X36598D01*
Y607661D01*
X40142D01*
Y615535D01*
D02*
G37*
G36*
X61039Y602181D02*
X53165D01*
Y598638D01*
X61039D01*
Y602181D01*
D02*
G37*
G36*
X51165D02*
X43291D01*
Y598638D01*
X51165D01*
Y602181D01*
D02*
G37*
G36*
X61039Y596638D02*
X53165D01*
Y593094D01*
X61039D01*
Y596638D01*
D02*
G37*
G36*
X51165D02*
X43291D01*
Y593094D01*
X51165D01*
Y596638D01*
D02*
G37*
G36*
X372473Y592118D02*
X369702D01*
Y589347D01*
X372473D01*
Y592118D01*
D02*
G37*
G36*
X367702D02*
X364930D01*
Y589347D01*
X367702D01*
Y592118D01*
D02*
G37*
G36*
X372473Y587347D02*
X369702D01*
Y584575D01*
X372473D01*
Y587347D01*
D02*
G37*
G36*
X367702D02*
X364930D01*
Y584575D01*
X367702D01*
Y587347D01*
D02*
G37*
G36*
X369702Y582015D02*
Y579347D01*
X372370D01*
X371996Y580249D01*
X371392Y581036D01*
X370604Y581641D01*
X369702Y582015D01*
D02*
G37*
G36*
X367702D02*
X366800Y581641D01*
X366012Y581036D01*
X365407Y580249D01*
X365034Y579347D01*
X367702D01*
Y582015D01*
D02*
G37*
G36*
X372370Y577347D02*
X369702D01*
Y574678D01*
X370604Y575052D01*
X371392Y575657D01*
X371996Y576444D01*
X372370Y577347D01*
D02*
G37*
G36*
X367702D02*
X365034D01*
X365407Y576444D01*
X366012Y575657D01*
X366800Y575052D01*
X367702Y574678D01*
Y577347D01*
D02*
G37*
G36*
X36433Y559860D02*
Y556906D01*
X39388D01*
X39380Y556963D01*
X38972Y557949D01*
X38322Y558795D01*
X37476Y559444D01*
X36491Y559852D01*
X36433Y559860D01*
D02*
G37*
G36*
X34433D02*
X34376Y559852D01*
X33390Y559444D01*
X32544Y558795D01*
X31894Y557949D01*
X31486Y556963D01*
X31479Y556906D01*
X34433D01*
Y559860D01*
D02*
G37*
G36*
X93882Y556222D02*
X92913D01*
X92138Y556120D01*
X91416Y555821D01*
X90796Y555345D01*
X90320Y554725D01*
X90114Y554228D01*
X93882D01*
Y556222D01*
D02*
G37*
G36*
X118362Y558803D02*
X117434Y558681D01*
X116569Y558323D01*
X115826Y557753D01*
X115256Y557010D01*
X115168Y556797D01*
X103839D01*
X103234Y556677D01*
X102721Y556334D01*
X100218Y553830D01*
X100075Y553879D01*
X99725Y554045D01*
X99443Y554725D01*
X98968Y555345D01*
X98348Y555821D01*
X97625Y556120D01*
X96850Y556222D01*
X95882D01*
Y553228D01*
X94882D01*
Y552228D01*
X90114D01*
X90320Y551731D01*
X90796Y551111D01*
X91049Y550917D01*
X91049Y550287D01*
X90939Y550203D01*
X90495Y549624D01*
X90216Y548951D01*
X90121Y548228D01*
X90216Y547506D01*
X90495Y546832D01*
X90939Y546254D01*
X91213Y546043D01*
Y545413D01*
X90939Y545203D01*
X90495Y544625D01*
X90216Y543951D01*
X90121Y543228D01*
X90216Y542506D01*
X90495Y541832D01*
X90939Y541254D01*
X91517Y540810D01*
X92191Y540531D01*
X92913Y540436D01*
X96850D01*
X97573Y540531D01*
X98247Y540810D01*
X98825Y541254D01*
X99127Y541648D01*
X149277D01*
X168499Y522427D01*
X168319Y521899D01*
X167769Y521826D01*
X166901Y521466D01*
X166155Y520894D01*
X165582Y520148D01*
X165222Y519279D01*
X165099Y518347D01*
X165222Y517414D01*
X165582Y516545D01*
X166155Y515799D01*
X166901Y515227D01*
X167769Y514867D01*
X168702Y514744D01*
X169634Y514867D01*
X170503Y515227D01*
X170943Y515564D01*
X171443Y515318D01*
Y513323D01*
X169855Y511735D01*
X169634Y511826D01*
X168702Y511949D01*
X167769Y511826D01*
X166901Y511466D01*
X166155Y510894D01*
X165582Y510148D01*
X165222Y509279D01*
X165099Y508347D01*
X165222Y507414D01*
X165582Y506545D01*
X166155Y505799D01*
X166901Y505227D01*
X167769Y504867D01*
X168702Y504744D01*
X169634Y504867D01*
X170503Y505227D01*
X171249Y505799D01*
X171822Y506545D01*
X172181Y507414D01*
X172304Y508347D01*
X172181Y509279D01*
X172090Y509500D01*
X174141Y511551D01*
X174484Y512063D01*
X174604Y512668D01*
Y520136D01*
X174484Y520741D01*
X174141Y521254D01*
X151049Y544346D01*
X150536Y544688D01*
X149932Y544809D01*
X99127D01*
X98825Y545203D01*
X98551Y545413D01*
Y546043D01*
X98825Y546254D01*
X99269Y546832D01*
X99548Y547506D01*
X99643Y548228D01*
X99578Y548721D01*
X104493Y553636D01*
X115168D01*
X115256Y553423D01*
X115826Y552680D01*
X116569Y552110D01*
X117434Y551752D01*
X118362Y551630D01*
X119290Y551752D01*
X120156Y552110D01*
X120898Y552680D01*
X121468Y553423D01*
X121827Y554288D01*
X121949Y555217D01*
X121827Y556145D01*
X121468Y557010D01*
X120898Y557753D01*
X120156Y558323D01*
X119290Y558681D01*
X118362Y558803D01*
D02*
G37*
G36*
X39388Y554906D02*
X36433D01*
Y551951D01*
X36491Y551959D01*
X37476Y552367D01*
X38322Y553016D01*
X38972Y553862D01*
X39380Y554848D01*
X39388Y554906D01*
D02*
G37*
G36*
X34433D02*
X31479D01*
X31486Y554848D01*
X31894Y553862D01*
X32544Y553016D01*
X33390Y552367D01*
X34376Y551959D01*
X34433Y551951D01*
Y554906D01*
D02*
G37*
G36*
X36433Y549860D02*
Y546906D01*
X39388D01*
X39380Y546963D01*
X38972Y547949D01*
X38322Y548795D01*
X37476Y549444D01*
X36491Y549852D01*
X36433Y549860D01*
D02*
G37*
G36*
X34433D02*
X34376Y549852D01*
X33390Y549444D01*
X32544Y548795D01*
X31894Y547949D01*
X31486Y546963D01*
X31479Y546906D01*
X34433D01*
Y549860D01*
D02*
G37*
G36*
X39388Y544906D02*
X36433D01*
Y541951D01*
X36491Y541959D01*
X37476Y542367D01*
X38322Y543016D01*
X38972Y543862D01*
X39380Y544848D01*
X39388Y544906D01*
D02*
G37*
G36*
X34433D02*
X31479D01*
X31486Y544848D01*
X31894Y543862D01*
X32544Y543016D01*
X33390Y542367D01*
X34376Y541959D01*
X34433Y541951D01*
Y544906D01*
D02*
G37*
G36*
X421866Y541371D02*
Y536669D01*
X426568D01*
X426501Y537179D01*
X425918Y538586D01*
X424991Y539794D01*
X423783Y540721D01*
X422376Y541304D01*
X421866Y541371D01*
D02*
G37*
G36*
X419866D02*
X419356Y541304D01*
X417949Y540721D01*
X416741Y539794D01*
X415814Y538586D01*
X415232Y537179D01*
X415164Y536669D01*
X419866D01*
Y541371D01*
D02*
G37*
G36*
X426568Y534669D02*
X421866D01*
Y529968D01*
X422376Y530035D01*
X423783Y530617D01*
X424991Y531544D01*
X425918Y532753D01*
X426501Y534160D01*
X426568Y534669D01*
D02*
G37*
G36*
X419866D02*
X415164D01*
X415232Y534160D01*
X415814Y532753D01*
X416741Y531544D01*
X417949Y530617D01*
X419356Y530035D01*
X419866Y529968D01*
Y534669D01*
D02*
G37*
G36*
X162273Y521918D02*
X155130D01*
Y514775D01*
X162273D01*
Y521918D01*
D02*
G37*
G36*
X35433Y519790D02*
X34428Y519658D01*
X33491Y519270D01*
X32686Y518652D01*
X32069Y517848D01*
X31681Y516911D01*
X31549Y515906D01*
X31681Y514900D01*
X32069Y513963D01*
X32686Y513159D01*
X33491Y512541D01*
X34428Y512153D01*
X35433Y512021D01*
X36438Y512153D01*
X37375Y512541D01*
X38180Y513159D01*
X38797Y513963D01*
X39185Y514900D01*
X39318Y515906D01*
X39185Y516911D01*
X38797Y517848D01*
X38180Y518652D01*
X37375Y519270D01*
X36438Y519658D01*
X35433Y519790D01*
D02*
G37*
G36*
X159702Y512015D02*
Y509346D01*
X162370D01*
X161996Y510249D01*
X161392Y511036D01*
X160604Y511641D01*
X159702Y512015D01*
D02*
G37*
G36*
X157702D02*
X156800Y511641D01*
X156012Y511036D01*
X155407Y510249D01*
X155034Y509346D01*
X157702D01*
Y512015D01*
D02*
G37*
G36*
X368702Y511949D02*
X367769Y511826D01*
X366901Y511466D01*
X366155Y510894D01*
X365582Y510148D01*
X365222Y509279D01*
X365099Y508347D01*
X365222Y507414D01*
X365582Y506545D01*
X366155Y505799D01*
X366901Y505227D01*
X367769Y504867D01*
X368702Y504744D01*
X369634Y504867D01*
X370503Y505227D01*
X371249Y505799D01*
X371822Y506545D01*
X372182Y507414D01*
X372304Y508347D01*
X372182Y509279D01*
X371822Y510148D01*
X371249Y510894D01*
X370503Y511466D01*
X369634Y511826D01*
X368702Y511949D01*
D02*
G37*
G36*
X358702D02*
X357769Y511826D01*
X356901Y511466D01*
X356154Y510894D01*
X355582Y510148D01*
X355222Y509279D01*
X355099Y508347D01*
X355222Y507414D01*
X355582Y506545D01*
X356154Y505799D01*
X356901Y505227D01*
X357769Y504867D01*
X358702Y504744D01*
X359634Y504867D01*
X360503Y505227D01*
X361249Y505799D01*
X361822Y506545D01*
X362181Y507414D01*
X362304Y508347D01*
X362181Y509279D01*
X361822Y510148D01*
X361249Y510894D01*
X360503Y511466D01*
X359634Y511826D01*
X358702Y511949D01*
D02*
G37*
G36*
X162370Y507346D02*
X159702D01*
Y504678D01*
X160604Y505052D01*
X161392Y505656D01*
X161996Y506444D01*
X162370Y507346D01*
D02*
G37*
G36*
X157702D02*
X155034D01*
X155407Y506444D01*
X156012Y505656D01*
X156800Y505052D01*
X157702Y504678D01*
Y507346D01*
D02*
G37*
G36*
X219291Y505297D02*
X218430Y505184D01*
X217627Y504851D01*
X216938Y504322D01*
X216409Y503633D01*
X216374Y503549D01*
X195043D01*
X195009Y503633D01*
X194480Y504322D01*
X193790Y504851D01*
X192988Y505184D01*
X192126Y505297D01*
X191264Y505184D01*
X190462Y504851D01*
X189772Y504322D01*
X189243Y503633D01*
X188911Y502830D01*
X188797Y501968D01*
X188911Y501107D01*
X189243Y500304D01*
X189772Y499615D01*
X190462Y499086D01*
X191264Y498753D01*
X192126Y498640D01*
X192988Y498753D01*
X193790Y499086D01*
X194480Y499615D01*
X195009Y500304D01*
X195043Y500388D01*
X216374D01*
X216409Y500304D01*
X216938Y499615D01*
X217627Y499086D01*
X218430Y498753D01*
X219291Y498640D01*
X220153Y498753D01*
X220956Y499086D01*
X221645Y499615D01*
X222174Y500304D01*
X222506Y501107D01*
X222620Y501968D01*
X222506Y502830D01*
X222174Y503633D01*
X221645Y504322D01*
X220956Y504851D01*
X220153Y505184D01*
X219291Y505297D01*
D02*
G37*
G36*
X39284Y509757D02*
X31582D01*
Y502054D01*
X39284D01*
Y509757D01*
D02*
G37*
G36*
X35433Y539790D02*
X34428Y539658D01*
X33491Y539269D01*
X32686Y538652D01*
X32069Y537848D01*
X31681Y536911D01*
X31549Y535906D01*
X31681Y534900D01*
X32069Y533963D01*
X32686Y533159D01*
X33491Y532542D01*
X34428Y532154D01*
X35433Y532021D01*
X36438Y532154D01*
X36800Y532303D01*
X67992Y501112D01*
Y496235D01*
X67530Y496044D01*
X39035Y524538D01*
X39185Y524900D01*
X39318Y525906D01*
X39185Y526911D01*
X38797Y527848D01*
X38180Y528652D01*
X37375Y529270D01*
X36438Y529658D01*
X35433Y529790D01*
X34428Y529658D01*
X33491Y529270D01*
X32686Y528652D01*
X32069Y527848D01*
X31681Y526911D01*
X31549Y525906D01*
X31681Y524900D01*
X32069Y523963D01*
X32686Y523159D01*
X33491Y522542D01*
X34428Y522154D01*
X35433Y522021D01*
X36438Y522154D01*
X36800Y522303D01*
X65692Y493412D01*
Y443665D01*
X65812Y443060D01*
X66155Y442547D01*
X155794Y352907D01*
X156307Y352565D01*
X156912Y352444D01*
X158635D01*
X158668Y351944D01*
X157769Y351826D01*
X156901Y351466D01*
X156155Y350894D01*
X155582Y350148D01*
X155222Y349279D01*
X155099Y348346D01*
X155222Y347414D01*
X155582Y346545D01*
X156155Y345799D01*
X156901Y345227D01*
X157769Y344867D01*
X158702Y344744D01*
X159634Y344867D01*
X160503Y345227D01*
X161249Y345799D01*
X161822Y346545D01*
X162181Y347414D01*
X162304Y348346D01*
X162181Y349279D01*
X161822Y350148D01*
X161249Y350894D01*
X160503Y351466D01*
X159634Y351826D01*
X158736Y351944D01*
X158769Y352444D01*
X164380D01*
X164985Y352565D01*
X165498Y352907D01*
X167549Y354958D01*
X167769Y354867D01*
X168702Y354744D01*
X169634Y354867D01*
X170503Y355227D01*
X171249Y355799D01*
X171822Y356545D01*
X172181Y357414D01*
X172304Y358347D01*
X172181Y359279D01*
X171822Y360148D01*
X171249Y360894D01*
X170503Y361466D01*
X169634Y361826D01*
X168702Y361949D01*
X167769Y361826D01*
X166901Y361466D01*
X166155Y360894D01*
X165582Y360148D01*
X165222Y359279D01*
X165099Y358347D01*
X165222Y357414D01*
X165314Y357193D01*
X163725Y355605D01*
X161731D01*
X161484Y356105D01*
X161822Y356545D01*
X162181Y357414D01*
X162304Y358347D01*
X162181Y359279D01*
X161822Y360148D01*
X161249Y360894D01*
X160503Y361466D01*
X159634Y361826D01*
X158702Y361949D01*
X157769Y361826D01*
X157548Y361735D01*
X71152Y448131D01*
Y486869D01*
X71652Y487116D01*
X71958Y486881D01*
X72761Y486549D01*
X73622Y486435D01*
X74484Y486549D01*
X75286Y486881D01*
X75976Y487410D01*
X76505Y488099D01*
X76539Y488183D01*
X82909D01*
X83514Y488304D01*
X84027Y488646D01*
X117221Y521840D01*
X117434Y521752D01*
X118362Y521630D01*
X119290Y521752D01*
X120156Y522111D01*
X120898Y522681D01*
X121468Y523423D01*
X121827Y524288D01*
X121949Y525217D01*
X121827Y526145D01*
X121468Y527010D01*
X120898Y527753D01*
X120156Y528323D01*
X119290Y528681D01*
X118362Y528803D01*
X117434Y528681D01*
X116569Y528323D01*
X115826Y527753D01*
X115256Y527010D01*
X114898Y526145D01*
X114776Y525217D01*
X114898Y524288D01*
X114986Y524075D01*
X82255Y491344D01*
X76539D01*
X76505Y491428D01*
X75976Y492117D01*
X75286Y492646D01*
X74484Y492979D01*
X73622Y493092D01*
X72761Y492979D01*
X71958Y492646D01*
X71652Y492412D01*
X71152Y492659D01*
Y501766D01*
X71032Y502371D01*
X70689Y502884D01*
X39035Y534538D01*
X39185Y534900D01*
X39318Y535906D01*
X39185Y536911D01*
X38797Y537848D01*
X38180Y538652D01*
X37375Y539269D01*
X36438Y539658D01*
X35433Y539790D01*
D02*
G37*
G36*
X368702Y501949D02*
X367769Y501826D01*
X366901Y501466D01*
X366155Y500894D01*
X365582Y500148D01*
X365222Y499279D01*
X365099Y498347D01*
X365222Y497414D01*
X365582Y496545D01*
X366155Y495799D01*
X366901Y495227D01*
X367769Y494867D01*
X368702Y494744D01*
X369634Y494867D01*
X370503Y495227D01*
X371249Y495799D01*
X371822Y496545D01*
X372182Y497414D01*
X372304Y498347D01*
X372182Y499279D01*
X371822Y500148D01*
X371249Y500894D01*
X370503Y501466D01*
X369634Y501826D01*
X368702Y501949D01*
D02*
G37*
G36*
X358702D02*
X357769Y501826D01*
X356901Y501466D01*
X356154Y500894D01*
X355582Y500148D01*
X355222Y499279D01*
X355099Y498347D01*
X355222Y497414D01*
X355582Y496545D01*
X356154Y495799D01*
X356901Y495227D01*
X357769Y494867D01*
X358702Y494744D01*
X359634Y494867D01*
X360503Y495227D01*
X361249Y495799D01*
X361822Y496545D01*
X362181Y497414D01*
X362304Y498347D01*
X362181Y499279D01*
X361822Y500148D01*
X361249Y500894D01*
X360503Y501466D01*
X359634Y501826D01*
X358702Y501949D01*
D02*
G37*
G36*
X168702D02*
X167769Y501826D01*
X166901Y501466D01*
X166155Y500894D01*
X165582Y500148D01*
X165222Y499279D01*
X165099Y498347D01*
X165222Y497414D01*
X165582Y496545D01*
X166155Y495799D01*
X166901Y495227D01*
X167769Y494867D01*
X168702Y494744D01*
X169634Y494867D01*
X170503Y495227D01*
X171249Y495799D01*
X171822Y496545D01*
X172181Y497414D01*
X172304Y498347D01*
X172181Y499279D01*
X171822Y500148D01*
X171249Y500894D01*
X170503Y501466D01*
X169634Y501826D01*
X168702Y501949D01*
D02*
G37*
G36*
X158702D02*
X157769Y501826D01*
X156901Y501466D01*
X156155Y500894D01*
X155582Y500148D01*
X155222Y499279D01*
X155099Y498347D01*
X155222Y497414D01*
X155582Y496545D01*
X156155Y495799D01*
X156901Y495227D01*
X157769Y494867D01*
X158702Y494744D01*
X159634Y494867D01*
X160503Y495227D01*
X161249Y495799D01*
X161822Y496545D01*
X162181Y497414D01*
X162304Y498347D01*
X162181Y499279D01*
X161822Y500148D01*
X161249Y500894D01*
X160503Y501466D01*
X159634Y501826D01*
X158702Y501949D01*
D02*
G37*
G36*
X368702Y491949D02*
X367769Y491826D01*
X366901Y491466D01*
X366155Y490894D01*
X365582Y490148D01*
X365222Y489279D01*
X365099Y488346D01*
X365222Y487414D01*
X365582Y486545D01*
X366155Y485799D01*
X366901Y485227D01*
X367769Y484867D01*
X368702Y484744D01*
X369634Y484867D01*
X370503Y485227D01*
X371249Y485799D01*
X371822Y486545D01*
X372182Y487414D01*
X372304Y488346D01*
X372182Y489279D01*
X371822Y490148D01*
X371249Y490894D01*
X370503Y491466D01*
X369634Y491826D01*
X368702Y491949D01*
D02*
G37*
G36*
X358702D02*
X357769Y491826D01*
X356901Y491466D01*
X356154Y490894D01*
X355582Y490148D01*
X355222Y489279D01*
X355099Y488346D01*
X355222Y487414D01*
X355582Y486545D01*
X356154Y485799D01*
X356901Y485227D01*
X357769Y484867D01*
X358702Y484744D01*
X359634Y484867D01*
X360503Y485227D01*
X361249Y485799D01*
X361822Y486545D01*
X362181Y487414D01*
X362304Y488346D01*
X362181Y489279D01*
X361822Y490148D01*
X361249Y490894D01*
X360503Y491466D01*
X359634Y491826D01*
X358702Y491949D01*
D02*
G37*
G36*
X158702D02*
X157769Y491826D01*
X156901Y491466D01*
X156155Y490894D01*
X155582Y490148D01*
X155222Y489279D01*
X155099Y488346D01*
X155222Y487414D01*
X155582Y486545D01*
X156155Y485799D01*
X156901Y485227D01*
X157769Y484867D01*
X158702Y484744D01*
X159634Y484867D01*
X160503Y485227D01*
X161249Y485799D01*
X161822Y486545D01*
X162181Y487414D01*
X162304Y488346D01*
X162181Y489279D01*
X161822Y490148D01*
X161249Y490894D01*
X160503Y491466D01*
X159634Y491826D01*
X158702Y491949D01*
D02*
G37*
G36*
X38005Y490561D02*
X29712D01*
Y482268D01*
X38005D01*
Y490561D01*
D02*
G37*
G36*
X61417Y484037D02*
X60556Y483924D01*
X59753Y483591D01*
X59064Y483062D01*
X58535Y482373D01*
X58223Y481619D01*
X57483D01*
X56878Y481499D01*
X56365Y481156D01*
X35451Y460243D01*
X34941Y460454D01*
X33858Y460597D01*
X32776Y460454D01*
X31767Y460036D01*
X30901Y459372D01*
X30236Y458505D01*
X29818Y457497D01*
X29676Y456414D01*
X29818Y455332D01*
X30030Y454821D01*
X27844Y452635D01*
X27502Y452123D01*
X27381Y451518D01*
Y416274D01*
X27502Y415670D01*
X27844Y415157D01*
X30030Y412971D01*
X29818Y412460D01*
X29676Y411378D01*
X29818Y410295D01*
X30236Y409287D01*
X30901Y408421D01*
X31767Y407756D01*
X32776Y407338D01*
X33858Y407196D01*
X34941Y407338D01*
X35949Y407756D01*
X36816Y408421D01*
X37480Y409287D01*
X37898Y410295D01*
X38041Y411378D01*
X37898Y412460D01*
X37480Y413469D01*
X36816Y414335D01*
X35949Y415000D01*
X34941Y415418D01*
X33858Y415560D01*
X32776Y415418D01*
X32265Y415206D01*
X30542Y416929D01*
Y417814D01*
X31042Y418060D01*
X31666Y417581D01*
X32724Y417143D01*
X32858Y417126D01*
Y421378D01*
Y425630D01*
X32724Y425612D01*
X31666Y425175D01*
X31042Y424696D01*
X30542Y424942D01*
Y428118D01*
X31042Y428312D01*
X31767Y427756D01*
X32776Y427338D01*
X33858Y427196D01*
X34941Y427338D01*
X35949Y427756D01*
X36816Y428421D01*
X37480Y429287D01*
X37898Y430296D01*
X38041Y431378D01*
X37898Y432460D01*
X37480Y433469D01*
X36816Y434335D01*
X35949Y435000D01*
X34941Y435418D01*
X33858Y435560D01*
X32776Y435418D01*
X31767Y435000D01*
X31042Y434444D01*
X30542Y434638D01*
Y437231D01*
X38005D01*
Y445524D01*
X30542D01*
Y450863D01*
X32265Y452586D01*
X32776Y452375D01*
X33858Y452232D01*
X34941Y452375D01*
X35949Y452793D01*
X36816Y453457D01*
X37480Y454323D01*
X37898Y455332D01*
X38041Y456414D01*
X37898Y457497D01*
X37686Y458008D01*
X58138Y478459D01*
X58984D01*
X59064Y478355D01*
X59753Y477826D01*
X60556Y477494D01*
X61417Y477380D01*
X62279Y477494D01*
X63082Y477826D01*
X63771Y478355D01*
X64300Y479044D01*
X64632Y479847D01*
X64746Y480709D01*
X64632Y481570D01*
X64300Y482373D01*
X63771Y483062D01*
X63082Y483591D01*
X62279Y483924D01*
X61417Y484037D01*
D02*
G37*
G36*
X368702Y481949D02*
X367769Y481826D01*
X366901Y481466D01*
X366155Y480894D01*
X365582Y480148D01*
X365222Y479279D01*
X365099Y478346D01*
X365222Y477414D01*
X365582Y476545D01*
X366155Y475799D01*
X366901Y475227D01*
X367769Y474867D01*
X368702Y474744D01*
X369634Y474867D01*
X370503Y475227D01*
X371249Y475799D01*
X371822Y476545D01*
X372182Y477414D01*
X372304Y478346D01*
X372182Y479279D01*
X371822Y480148D01*
X371249Y480894D01*
X370503Y481466D01*
X369634Y481826D01*
X368702Y481949D01*
D02*
G37*
G36*
X358702D02*
X357769Y481826D01*
X356901Y481466D01*
X356154Y480894D01*
X355582Y480148D01*
X355222Y479279D01*
X355099Y478346D01*
X355222Y477414D01*
X355582Y476545D01*
X356154Y475799D01*
X356901Y475227D01*
X357769Y474867D01*
X358702Y474744D01*
X359634Y474867D01*
X360503Y475227D01*
X361249Y475799D01*
X361822Y476545D01*
X362181Y477414D01*
X362304Y478346D01*
X362181Y479279D01*
X361822Y480148D01*
X361249Y480894D01*
X360503Y481466D01*
X359634Y481826D01*
X358702Y481949D01*
D02*
G37*
G36*
X33858Y480597D02*
X32776Y480454D01*
X31767Y480036D01*
X30901Y479372D01*
X30236Y478506D01*
X29818Y477497D01*
X29676Y476414D01*
X29818Y475332D01*
X30236Y474323D01*
X30901Y473457D01*
X31767Y472792D01*
X32776Y472375D01*
X33858Y472232D01*
X34941Y472375D01*
X35949Y472792D01*
X36816Y473457D01*
X37480Y474323D01*
X37898Y475332D01*
X38041Y476414D01*
X37898Y477497D01*
X37480Y478506D01*
X36816Y479372D01*
X35949Y480036D01*
X34941Y480454D01*
X33858Y480597D01*
D02*
G37*
G36*
X34858Y470667D02*
Y467414D01*
X38111D01*
X38093Y467549D01*
X37655Y468606D01*
X36958Y469514D01*
X36050Y470211D01*
X34993Y470649D01*
X34858Y470667D01*
D02*
G37*
G36*
X32858Y470667D02*
X32724Y470649D01*
X31666Y470211D01*
X30758Y469514D01*
X30062Y468606D01*
X29624Y467549D01*
X29606Y467414D01*
X32858D01*
Y470667D01*
D02*
G37*
G36*
X368702Y471949D02*
X367769Y471826D01*
X366901Y471466D01*
X366155Y470894D01*
X365582Y470148D01*
X365222Y469279D01*
X365099Y468347D01*
X365222Y467414D01*
X365582Y466545D01*
X366155Y465799D01*
X366901Y465227D01*
X367769Y464867D01*
X368702Y464744D01*
X369634Y464867D01*
X370503Y465227D01*
X371249Y465799D01*
X371822Y466545D01*
X372182Y467414D01*
X372304Y468347D01*
X372182Y469279D01*
X371822Y470148D01*
X371249Y470894D01*
X370503Y471466D01*
X369634Y471826D01*
X368702Y471949D01*
D02*
G37*
G36*
X358702D02*
X357769Y471826D01*
X356901Y471466D01*
X356154Y470894D01*
X355582Y470148D01*
X355222Y469279D01*
X355099Y468347D01*
X355222Y467414D01*
X355582Y466545D01*
X356154Y465799D01*
X356901Y465227D01*
X357769Y464867D01*
X358702Y464744D01*
X359634Y464867D01*
X360503Y465227D01*
X361249Y465799D01*
X361822Y466545D01*
X362181Y467414D01*
X362304Y468347D01*
X362181Y469279D01*
X361822Y470148D01*
X361249Y470894D01*
X360503Y471466D01*
X359634Y471826D01*
X358702Y471949D01*
D02*
G37*
G36*
X32858Y465414D02*
X29606D01*
X29624Y465280D01*
X30062Y464222D01*
X30758Y463314D01*
X31666Y462618D01*
X32724Y462180D01*
X32858Y462162D01*
Y465414D01*
D02*
G37*
G36*
X38111D02*
X34858D01*
Y462162D01*
X34993Y462180D01*
X36050Y462618D01*
X36958Y463314D01*
X37655Y464222D01*
X38093Y465280D01*
X38111Y465414D01*
D02*
G37*
G36*
X421473Y466253D02*
Y461551D01*
X426174D01*
X426107Y462061D01*
X425524Y463468D01*
X424597Y464676D01*
X423389Y465603D01*
X421982Y466186D01*
X421473Y466253D01*
D02*
G37*
G36*
X419473Y466253D02*
X418963Y466186D01*
X417556Y465603D01*
X416348Y464676D01*
X415421Y463468D01*
X414838Y462061D01*
X414771Y461551D01*
X419473D01*
Y466253D01*
D02*
G37*
G36*
X426174Y459551D02*
X421473D01*
Y454849D01*
X421982Y454917D01*
X423389Y455499D01*
X424597Y456426D01*
X425524Y457634D01*
X426107Y459041D01*
X426174Y459551D01*
D02*
G37*
G36*
X419473D02*
X414771D01*
X414838Y459041D01*
X415421Y457634D01*
X416348Y456426D01*
X417556Y455499D01*
X418963Y454917D01*
X419473Y454849D01*
Y459551D01*
D02*
G37*
G36*
X368702Y461949D02*
X367769Y461826D01*
X366901Y461466D01*
X366155Y460894D01*
X365582Y460148D01*
X365222Y459279D01*
X365099Y458347D01*
X365222Y457414D01*
X365582Y456545D01*
X366155Y455799D01*
X366901Y455227D01*
X367769Y454867D01*
X368702Y454744D01*
X369634Y454867D01*
X370503Y455227D01*
X371249Y455799D01*
X371822Y456545D01*
X372182Y457414D01*
X372304Y458347D01*
X372182Y459279D01*
X371822Y460148D01*
X371249Y460894D01*
X370503Y461466D01*
X369634Y461826D01*
X368702Y461949D01*
D02*
G37*
G36*
X358702D02*
X357769Y461826D01*
X356901Y461466D01*
X356154Y460894D01*
X355582Y460148D01*
X355222Y459279D01*
X355099Y458347D01*
X355222Y457414D01*
X355582Y456545D01*
X356154Y455799D01*
X356901Y455227D01*
X357769Y454867D01*
X358702Y454744D01*
X359634Y454867D01*
X360503Y455227D01*
X361249Y455799D01*
X361822Y456545D01*
X362181Y457414D01*
X362304Y458347D01*
X362181Y459279D01*
X361822Y460148D01*
X361249Y460894D01*
X360503Y461466D01*
X359634Y461826D01*
X358702Y461949D01*
D02*
G37*
G36*
X158702D02*
X157769Y461826D01*
X156901Y461466D01*
X156155Y460894D01*
X155582Y460148D01*
X155222Y459279D01*
X155099Y458347D01*
X155222Y457414D01*
X155582Y456545D01*
X156155Y455799D01*
X156901Y455227D01*
X157769Y454867D01*
X158702Y454744D01*
X159634Y454867D01*
X160503Y455227D01*
X161249Y455799D01*
X161822Y456545D01*
X162181Y457414D01*
X162304Y458347D01*
X162181Y459279D01*
X161822Y460148D01*
X161249Y460894D01*
X160503Y461466D01*
X159634Y461826D01*
X158702Y461949D01*
D02*
G37*
G36*
X368702Y451949D02*
X367769Y451826D01*
X366901Y451466D01*
X366155Y450894D01*
X365582Y450148D01*
X365222Y449279D01*
X365099Y448347D01*
X365222Y447414D01*
X365582Y446545D01*
X366155Y445799D01*
X366901Y445227D01*
X367769Y444867D01*
X368702Y444744D01*
X369634Y444867D01*
X370503Y445227D01*
X371249Y445799D01*
X371822Y446545D01*
X372182Y447414D01*
X372304Y448347D01*
X372182Y449279D01*
X371822Y450148D01*
X371249Y450894D01*
X370503Y451466D01*
X369634Y451826D01*
X368702Y451949D01*
D02*
G37*
G36*
X358702D02*
X357769Y451826D01*
X356901Y451466D01*
X356154Y450894D01*
X355582Y450148D01*
X355222Y449279D01*
X355099Y448347D01*
X355222Y447414D01*
X355582Y446545D01*
X356154Y445799D01*
X356901Y445227D01*
X357769Y444867D01*
X358702Y444744D01*
X359634Y444867D01*
X360503Y445227D01*
X361249Y445799D01*
X361822Y446545D01*
X362181Y447414D01*
X362304Y448347D01*
X362181Y449279D01*
X361822Y450148D01*
X361249Y450894D01*
X360503Y451466D01*
X359634Y451826D01*
X358702Y451949D01*
D02*
G37*
G36*
X168702D02*
X167769Y451826D01*
X166901Y451466D01*
X166155Y450894D01*
X165582Y450148D01*
X165222Y449279D01*
X165099Y448347D01*
X165222Y447414D01*
X165582Y446545D01*
X166155Y445799D01*
X166901Y445227D01*
X167769Y444867D01*
X168702Y444744D01*
X169634Y444867D01*
X170503Y445227D01*
X171249Y445799D01*
X171822Y446545D01*
X172181Y447414D01*
X172304Y448347D01*
X172181Y449279D01*
X171822Y450148D01*
X171249Y450894D01*
X170503Y451466D01*
X169634Y451826D01*
X168702Y451949D01*
D02*
G37*
G36*
X158702D02*
X157769Y451826D01*
X156901Y451466D01*
X156155Y450894D01*
X155582Y450148D01*
X155222Y449279D01*
X155099Y448347D01*
X155222Y447414D01*
X155582Y446545D01*
X156155Y445799D01*
X156901Y445227D01*
X157769Y444867D01*
X158702Y444744D01*
X159634Y444867D01*
X160503Y445227D01*
X161249Y445799D01*
X161822Y446545D01*
X162181Y447414D01*
X162304Y448347D01*
X162181Y449279D01*
X161822Y450148D01*
X161249Y450894D01*
X160503Y451466D01*
X159634Y451826D01*
X158702Y451949D01*
D02*
G37*
G36*
X420472Y446183D02*
X419015Y445991D01*
X417657Y445428D01*
X416490Y444533D01*
X415595Y443367D01*
X415033Y442009D01*
X414841Y440551D01*
X415033Y439094D01*
X415544Y437858D01*
X383291Y405605D01*
X371730D01*
X371484Y406105D01*
X371822Y406545D01*
X372182Y407414D01*
X372304Y408347D01*
X372182Y409279D01*
X371822Y410148D01*
X371249Y410894D01*
X370503Y411466D01*
X369634Y411826D01*
X368702Y411949D01*
X367769Y411826D01*
X366901Y411466D01*
X366155Y410894D01*
X365582Y410148D01*
X365222Y409279D01*
X365099Y408347D01*
X365222Y407414D01*
X365582Y406545D01*
X365920Y406105D01*
X365673Y405605D01*
X364380D01*
X363775Y405485D01*
X363263Y405142D01*
X359855Y401735D01*
X359634Y401826D01*
X358702Y401949D01*
X357769Y401826D01*
X356901Y401466D01*
X356154Y400894D01*
X355582Y400148D01*
X355222Y399279D01*
X355099Y398346D01*
X355222Y397414D01*
X355582Y396545D01*
X356154Y395799D01*
X356901Y395227D01*
X357769Y394867D01*
X358702Y394744D01*
X359634Y394867D01*
X360503Y395227D01*
X361249Y395799D01*
X361822Y396545D01*
X362181Y397414D01*
X362304Y398346D01*
X362181Y399279D01*
X362090Y399500D01*
X365035Y402444D01*
X368635D01*
X368668Y401944D01*
X367769Y401826D01*
X366901Y401466D01*
X366155Y400894D01*
X365582Y400148D01*
X365222Y399279D01*
X365099Y398346D01*
X365222Y397414D01*
X365582Y396545D01*
X366155Y395799D01*
X366901Y395227D01*
X367769Y394867D01*
X368702Y394744D01*
X369634Y394867D01*
X370503Y395227D01*
X371249Y395799D01*
X371822Y396545D01*
X372182Y397414D01*
X372304Y398346D01*
X372182Y399279D01*
X371822Y400148D01*
X371249Y400894D01*
X370503Y401466D01*
X369634Y401826D01*
X368736Y401944D01*
X368769Y402444D01*
X383946D01*
X384551Y402565D01*
X385064Y402907D01*
X417779Y435623D01*
X419015Y435111D01*
X420472Y434920D01*
X421930Y435111D01*
X423288Y435674D01*
X424455Y436569D01*
X425350Y437735D01*
X425912Y439094D01*
X426104Y440551D01*
X425912Y442009D01*
X425350Y443367D01*
X424455Y444533D01*
X423288Y445428D01*
X421930Y445991D01*
X420472Y446183D01*
D02*
G37*
G36*
X368702Y441949D02*
X367769Y441826D01*
X366901Y441466D01*
X366155Y440894D01*
X365582Y440148D01*
X365222Y439279D01*
X365099Y438346D01*
X365222Y437414D01*
X365582Y436545D01*
X366155Y435799D01*
X366901Y435227D01*
X367769Y434867D01*
X368702Y434744D01*
X369634Y434867D01*
X370503Y435227D01*
X371249Y435799D01*
X371822Y436545D01*
X372182Y437414D01*
X372304Y438346D01*
X372182Y439279D01*
X371822Y440148D01*
X371249Y440894D01*
X370503Y441466D01*
X369634Y441826D01*
X368702Y441949D01*
D02*
G37*
G36*
X358702D02*
X357769Y441826D01*
X356901Y441466D01*
X356154Y440894D01*
X355582Y440148D01*
X355222Y439279D01*
X355099Y438346D01*
X355222Y437414D01*
X355582Y436545D01*
X356154Y435799D01*
X356901Y435227D01*
X357769Y434867D01*
X358702Y434744D01*
X359634Y434867D01*
X360503Y435227D01*
X361249Y435799D01*
X361822Y436545D01*
X362181Y437414D01*
X362304Y438346D01*
X362181Y439279D01*
X361822Y440148D01*
X361249Y440894D01*
X360503Y441466D01*
X359634Y441826D01*
X358702Y441949D01*
D02*
G37*
G36*
X168702D02*
X167769Y441826D01*
X166901Y441466D01*
X166155Y440894D01*
X165582Y440148D01*
X165222Y439279D01*
X165099Y438346D01*
X165222Y437414D01*
X165582Y436545D01*
X166155Y435799D01*
X166901Y435227D01*
X167769Y434867D01*
X168702Y434744D01*
X169634Y434867D01*
X170503Y435227D01*
X171249Y435799D01*
X171822Y436545D01*
X172181Y437414D01*
X172304Y438346D01*
X172181Y439279D01*
X171822Y440148D01*
X171249Y440894D01*
X170503Y441466D01*
X169634Y441826D01*
X168702Y441949D01*
D02*
G37*
G36*
X158702D02*
X157769Y441826D01*
X156901Y441466D01*
X156155Y440894D01*
X155582Y440148D01*
X155222Y439279D01*
X155099Y438346D01*
X155222Y437414D01*
X155582Y436545D01*
X156155Y435799D01*
X156901Y435227D01*
X157769Y434867D01*
X158702Y434744D01*
X159634Y434867D01*
X160503Y435227D01*
X161249Y435799D01*
X161822Y436545D01*
X162181Y437414D01*
X162304Y438346D01*
X162181Y439279D01*
X161822Y440148D01*
X161249Y440894D01*
X160503Y441466D01*
X159634Y441826D01*
X158702Y441949D01*
D02*
G37*
G36*
X368702Y431949D02*
X367769Y431826D01*
X366901Y431466D01*
X366155Y430894D01*
X365582Y430148D01*
X365222Y429279D01*
X365099Y428346D01*
X365222Y427414D01*
X365582Y426545D01*
X366155Y425799D01*
X366901Y425227D01*
X367769Y424867D01*
X368702Y424744D01*
X369634Y424867D01*
X370503Y425227D01*
X371249Y425799D01*
X371822Y426545D01*
X372182Y427414D01*
X372304Y428346D01*
X372182Y429279D01*
X371822Y430148D01*
X371249Y430894D01*
X370503Y431466D01*
X369634Y431826D01*
X368702Y431949D01*
D02*
G37*
G36*
X358702D02*
X357769Y431826D01*
X356901Y431466D01*
X356154Y430894D01*
X355582Y430148D01*
X355222Y429279D01*
X355099Y428346D01*
X355222Y427414D01*
X355582Y426545D01*
X356154Y425799D01*
X356901Y425227D01*
X357769Y424867D01*
X358702Y424744D01*
X359634Y424867D01*
X360503Y425227D01*
X361249Y425799D01*
X361822Y426545D01*
X362181Y427414D01*
X362304Y428346D01*
X362181Y429279D01*
X361822Y430148D01*
X361249Y430894D01*
X360503Y431466D01*
X359634Y431826D01*
X358702Y431949D01*
D02*
G37*
G36*
X168702D02*
X167769Y431826D01*
X166901Y431466D01*
X166155Y430894D01*
X165582Y430148D01*
X165222Y429279D01*
X165099Y428346D01*
X165222Y427414D01*
X165582Y426545D01*
X166155Y425799D01*
X166901Y425227D01*
X167769Y424867D01*
X168702Y424744D01*
X169634Y424867D01*
X170503Y425227D01*
X171249Y425799D01*
X171822Y426545D01*
X172181Y427414D01*
X172304Y428346D01*
X172181Y429279D01*
X171822Y430148D01*
X171249Y430894D01*
X170503Y431466D01*
X169634Y431826D01*
X168702Y431949D01*
D02*
G37*
G36*
X158702D02*
X157769Y431826D01*
X156901Y431466D01*
X156155Y430894D01*
X155582Y430148D01*
X155222Y429279D01*
X155099Y428346D01*
X155222Y427414D01*
X155582Y426545D01*
X156155Y425799D01*
X156901Y425227D01*
X157769Y424867D01*
X158702Y424744D01*
X159634Y424867D01*
X160503Y425227D01*
X161249Y425799D01*
X161822Y426545D01*
X162181Y427414D01*
X162304Y428346D01*
X162181Y429279D01*
X161822Y430148D01*
X161249Y430894D01*
X160503Y431466D01*
X159634Y431826D01*
X158702Y431949D01*
D02*
G37*
G36*
X34858Y425630D02*
Y422378D01*
X38111D01*
X38093Y422513D01*
X37655Y423570D01*
X36958Y424478D01*
X36050Y425175D01*
X34993Y425612D01*
X34858Y425630D01*
D02*
G37*
G36*
X38111Y420378D02*
X34858D01*
Y417126D01*
X34993Y417143D01*
X36050Y417581D01*
X36958Y418278D01*
X37655Y419186D01*
X38093Y420243D01*
X38111Y420378D01*
D02*
G37*
G36*
X368702Y421949D02*
X367769Y421826D01*
X366901Y421466D01*
X366155Y420894D01*
X365582Y420148D01*
X365222Y419279D01*
X365099Y418347D01*
X365222Y417414D01*
X365582Y416545D01*
X366155Y415799D01*
X366901Y415227D01*
X367769Y414867D01*
X368702Y414744D01*
X369634Y414867D01*
X370503Y415227D01*
X371249Y415799D01*
X371822Y416545D01*
X372182Y417414D01*
X372304Y418347D01*
X372182Y419279D01*
X371822Y420148D01*
X371249Y420894D01*
X370503Y421466D01*
X369634Y421826D01*
X368702Y421949D01*
D02*
G37*
G36*
X358702D02*
X357769Y421826D01*
X356901Y421466D01*
X356154Y420894D01*
X355582Y420148D01*
X355222Y419279D01*
X355099Y418347D01*
X355222Y417414D01*
X355582Y416545D01*
X356154Y415799D01*
X356901Y415227D01*
X357769Y414867D01*
X358702Y414744D01*
X359634Y414867D01*
X360503Y415227D01*
X361249Y415799D01*
X361822Y416545D01*
X362181Y417414D01*
X362304Y418347D01*
X362181Y419279D01*
X361822Y420148D01*
X361249Y420894D01*
X360503Y421466D01*
X359634Y421826D01*
X358702Y421949D01*
D02*
G37*
G36*
X168702D02*
X167769Y421826D01*
X166901Y421466D01*
X166155Y420894D01*
X165582Y420148D01*
X165222Y419279D01*
X165099Y418347D01*
X165222Y417414D01*
X165582Y416545D01*
X166155Y415799D01*
X166901Y415227D01*
X167769Y414867D01*
X168702Y414744D01*
X169634Y414867D01*
X170503Y415227D01*
X171249Y415799D01*
X171822Y416545D01*
X172181Y417414D01*
X172304Y418347D01*
X172181Y419279D01*
X171822Y420148D01*
X171249Y420894D01*
X170503Y421466D01*
X169634Y421826D01*
X168702Y421949D01*
D02*
G37*
G36*
X158702D02*
X157769Y421826D01*
X156901Y421466D01*
X156155Y420894D01*
X155582Y420148D01*
X155222Y419279D01*
X155099Y418347D01*
X155222Y417414D01*
X155582Y416545D01*
X156155Y415799D01*
X156901Y415227D01*
X157769Y414867D01*
X158702Y414744D01*
X159634Y414867D01*
X160503Y415227D01*
X161249Y415799D01*
X161822Y416545D01*
X162181Y417414D01*
X162304Y418347D01*
X162181Y419279D01*
X161822Y420148D01*
X161249Y420894D01*
X160503Y421466D01*
X159634Y421826D01*
X158702Y421949D01*
D02*
G37*
G36*
X358702Y411949D02*
X357769Y411826D01*
X356901Y411466D01*
X356154Y410894D01*
X355582Y410148D01*
X355222Y409279D01*
X355099Y408347D01*
X355222Y407414D01*
X355582Y406545D01*
X356154Y405799D01*
X356901Y405227D01*
X357769Y404867D01*
X358702Y404744D01*
X359634Y404867D01*
X360503Y405227D01*
X361249Y405799D01*
X361822Y406545D01*
X362181Y407414D01*
X362304Y408347D01*
X362181Y409279D01*
X361822Y410148D01*
X361249Y410894D01*
X360503Y411466D01*
X359634Y411826D01*
X358702Y411949D01*
D02*
G37*
G36*
X168702D02*
X167769Y411826D01*
X166901Y411466D01*
X166155Y410894D01*
X165582Y410148D01*
X165222Y409279D01*
X165099Y408347D01*
X165222Y407414D01*
X165582Y406545D01*
X166155Y405799D01*
X166901Y405227D01*
X167769Y404867D01*
X168702Y404744D01*
X169634Y404867D01*
X170503Y405227D01*
X171249Y405799D01*
X171822Y406545D01*
X172181Y407414D01*
X172304Y408347D01*
X172181Y409279D01*
X171822Y410148D01*
X171249Y410894D01*
X170503Y411466D01*
X169634Y411826D01*
X168702Y411949D01*
D02*
G37*
G36*
X158702D02*
X157769Y411826D01*
X156901Y411466D01*
X156155Y410894D01*
X155582Y410148D01*
X155222Y409279D01*
X155099Y408347D01*
X155222Y407414D01*
X155582Y406545D01*
X156155Y405799D01*
X156901Y405227D01*
X157769Y404867D01*
X158702Y404744D01*
X159634Y404867D01*
X160503Y405227D01*
X161249Y405799D01*
X161822Y406545D01*
X162181Y407414D01*
X162304Y408347D01*
X162181Y409279D01*
X161822Y410148D01*
X161249Y410894D01*
X160503Y411466D01*
X159634Y411826D01*
X158702Y411949D01*
D02*
G37*
G36*
X168702Y401949D02*
X167769Y401826D01*
X166901Y401466D01*
X166155Y400894D01*
X165582Y400148D01*
X165222Y399279D01*
X165099Y398346D01*
X165222Y397414D01*
X165582Y396545D01*
X166155Y395799D01*
X166901Y395227D01*
X167769Y394867D01*
X168702Y394744D01*
X169634Y394867D01*
X170503Y395227D01*
X171249Y395799D01*
X171822Y396545D01*
X172181Y397414D01*
X172304Y398346D01*
X172181Y399279D01*
X171822Y400148D01*
X171249Y400894D01*
X170503Y401466D01*
X169634Y401826D01*
X168702Y401949D01*
D02*
G37*
G36*
X158702D02*
X157769Y401826D01*
X156901Y401466D01*
X156155Y400894D01*
X155582Y400148D01*
X155222Y399279D01*
X155099Y398346D01*
X155222Y397414D01*
X155582Y396545D01*
X156155Y395799D01*
X156901Y395227D01*
X157769Y394867D01*
X158702Y394744D01*
X159634Y394867D01*
X160503Y395227D01*
X161249Y395799D01*
X161822Y396545D01*
X162181Y397414D01*
X162304Y398346D01*
X162181Y399279D01*
X161822Y400148D01*
X161249Y400894D01*
X160503Y401466D01*
X159634Y401826D01*
X158702Y401949D01*
D02*
G37*
G36*
X34563Y397281D02*
Y394327D01*
X37517D01*
X37510Y394384D01*
X37102Y395370D01*
X36452Y396216D01*
X35606Y396866D01*
X34621Y397274D01*
X34563Y397281D01*
D02*
G37*
G36*
X32563D02*
X32505Y397274D01*
X31520Y396866D01*
X30674Y396216D01*
X30024Y395370D01*
X29616Y394384D01*
X29609Y394327D01*
X32563D01*
Y397281D01*
D02*
G37*
G36*
Y392327D02*
X29609D01*
X29616Y392269D01*
X30024Y391284D01*
X30674Y390437D01*
X31520Y389788D01*
X32505Y389380D01*
X32563Y389372D01*
Y392327D01*
D02*
G37*
G36*
X37517D02*
X34563D01*
Y389372D01*
X34621Y389380D01*
X35606Y389788D01*
X36452Y390437D01*
X37102Y391284D01*
X37510Y392269D01*
X37517Y392327D01*
D02*
G37*
G36*
X358702Y391949D02*
X357769Y391826D01*
X356901Y391466D01*
X356154Y390894D01*
X355582Y390148D01*
X355222Y389279D01*
X355099Y388347D01*
X355222Y387414D01*
X355582Y386545D01*
X356154Y385799D01*
X356901Y385227D01*
X357769Y384867D01*
X358702Y384744D01*
X359634Y384867D01*
X360503Y385227D01*
X361249Y385799D01*
X361822Y386545D01*
X362181Y387414D01*
X362304Y388347D01*
X362181Y389279D01*
X361822Y390148D01*
X361249Y390894D01*
X360503Y391466D01*
X359634Y391826D01*
X358702Y391949D01*
D02*
G37*
G36*
X168702D02*
X167769Y391826D01*
X166901Y391466D01*
X166155Y390894D01*
X165582Y390148D01*
X165222Y389279D01*
X165099Y388347D01*
X165222Y387414D01*
X165582Y386545D01*
X166155Y385799D01*
X166901Y385227D01*
X167769Y384867D01*
X168702Y384744D01*
X169634Y384867D01*
X170503Y385227D01*
X171249Y385799D01*
X171822Y386545D01*
X172181Y387414D01*
X172304Y388347D01*
X172181Y389279D01*
X171822Y390148D01*
X171249Y390894D01*
X170503Y391466D01*
X169634Y391826D01*
X168702Y391949D01*
D02*
G37*
G36*
X158702D02*
X157769Y391826D01*
X156901Y391466D01*
X156155Y390894D01*
X155582Y390148D01*
X155222Y389279D01*
X155099Y388347D01*
X155222Y387414D01*
X155582Y386545D01*
X156155Y385799D01*
X156901Y385227D01*
X157769Y384867D01*
X158702Y384744D01*
X159634Y384867D01*
X160503Y385227D01*
X161249Y385799D01*
X161822Y386545D01*
X162181Y387414D01*
X162304Y388347D01*
X162181Y389279D01*
X161822Y390148D01*
X161249Y390894D01*
X160503Y391466D01*
X159634Y391826D01*
X158702Y391949D01*
D02*
G37*
G36*
X421472Y387985D02*
Y383283D01*
X426174D01*
X426107Y383793D01*
X425524Y385200D01*
X424597Y386408D01*
X423389Y387335D01*
X421982Y387918D01*
X421472Y387985D01*
D02*
G37*
G36*
X419472Y387985D02*
X418963Y387918D01*
X417556Y387335D01*
X416348Y386408D01*
X415421Y385200D01*
X414838Y383793D01*
X414771Y383283D01*
X419472D01*
Y387985D01*
D02*
G37*
G36*
X33563Y387211D02*
X32558Y387079D01*
X31621Y386691D01*
X30816Y386073D01*
X30199Y385269D01*
X29811Y384332D01*
X29679Y383327D01*
X29811Y382321D01*
X30199Y381385D01*
X30816Y380580D01*
X31621Y379963D01*
X32558Y379575D01*
X33563Y379442D01*
X34568Y379575D01*
X35505Y379963D01*
X36310Y380580D01*
X36927Y381385D01*
X37315Y382321D01*
X37447Y383327D01*
X37315Y384332D01*
X36927Y385269D01*
X36310Y386073D01*
X35505Y386691D01*
X34568Y387079D01*
X33563Y387211D01*
D02*
G37*
G36*
X419472Y381283D02*
X414771D01*
X414838Y380774D01*
X415421Y379367D01*
X416348Y378159D01*
X417556Y377232D01*
X418963Y376649D01*
X419472Y376582D01*
Y381283D01*
D02*
G37*
G36*
X426174D02*
X421472D01*
Y376582D01*
X421982Y376649D01*
X423389Y377232D01*
X424597Y378159D01*
X425524Y379367D01*
X426107Y380774D01*
X426174Y381283D01*
D02*
G37*
G36*
X368702Y381949D02*
X367769Y381826D01*
X366901Y381466D01*
X366155Y380894D01*
X365582Y380148D01*
X365222Y379279D01*
X365099Y378346D01*
X365222Y377414D01*
X365582Y376545D01*
X366155Y375799D01*
X366901Y375227D01*
X367769Y374867D01*
X368702Y374744D01*
X369634Y374867D01*
X370503Y375227D01*
X371249Y375799D01*
X371822Y376545D01*
X372182Y377414D01*
X372304Y378346D01*
X372182Y379279D01*
X371822Y380148D01*
X371249Y380894D01*
X370503Y381466D01*
X369634Y381826D01*
X368702Y381949D01*
D02*
G37*
G36*
X358702D02*
X357769Y381826D01*
X356901Y381466D01*
X356154Y380894D01*
X355582Y380148D01*
X355222Y379279D01*
X355099Y378346D01*
X355222Y377414D01*
X355582Y376545D01*
X356154Y375799D01*
X356901Y375227D01*
X357769Y374867D01*
X358702Y374744D01*
X359634Y374867D01*
X360503Y375227D01*
X361249Y375799D01*
X361822Y376545D01*
X362181Y377414D01*
X362304Y378346D01*
X362181Y379279D01*
X361822Y380148D01*
X361249Y380894D01*
X360503Y381466D01*
X359634Y381826D01*
X358702Y381949D01*
D02*
G37*
G36*
X168702D02*
X167769Y381826D01*
X166901Y381466D01*
X166155Y380894D01*
X165582Y380148D01*
X165222Y379279D01*
X165099Y378346D01*
X165222Y377414D01*
X165582Y376545D01*
X166155Y375799D01*
X166901Y375227D01*
X167769Y374867D01*
X168702Y374744D01*
X169634Y374867D01*
X170503Y375227D01*
X171249Y375799D01*
X171822Y376545D01*
X172181Y377414D01*
X172304Y378346D01*
X172181Y379279D01*
X171822Y380148D01*
X171249Y380894D01*
X170503Y381466D01*
X169634Y381826D01*
X168702Y381949D01*
D02*
G37*
G36*
X158702D02*
X157769Y381826D01*
X156901Y381466D01*
X156155Y380894D01*
X155582Y380148D01*
X155222Y379279D01*
X155099Y378346D01*
X155222Y377414D01*
X155582Y376545D01*
X156155Y375799D01*
X156901Y375227D01*
X157769Y374867D01*
X158702Y374744D01*
X159634Y374867D01*
X160503Y375227D01*
X161249Y375799D01*
X161822Y376545D01*
X162181Y377414D01*
X162304Y378346D01*
X162181Y379279D01*
X161822Y380148D01*
X161249Y380894D01*
X160503Y381466D01*
X159634Y381826D01*
X158702Y381949D01*
D02*
G37*
G36*
X33563Y377211D02*
X32558Y377079D01*
X31621Y376691D01*
X30816Y376074D01*
X30199Y375269D01*
X29811Y374332D01*
X29679Y373327D01*
X29811Y372321D01*
X30199Y371385D01*
X30816Y370580D01*
X31621Y369963D01*
X32558Y369575D01*
X33563Y369442D01*
X34568Y369575D01*
X35505Y369963D01*
X36310Y370580D01*
X36927Y371385D01*
X37315Y372321D01*
X37447Y373327D01*
X37315Y374332D01*
X36927Y375269D01*
X36310Y376074D01*
X35505Y376691D01*
X34568Y377079D01*
X33563Y377211D01*
D02*
G37*
G36*
X168702Y371949D02*
X167769Y371826D01*
X166901Y371466D01*
X166155Y370894D01*
X165582Y370148D01*
X165222Y369279D01*
X165099Y368347D01*
X165222Y367414D01*
X165582Y366545D01*
X166155Y365799D01*
X166901Y365227D01*
X167769Y364867D01*
X168702Y364744D01*
X169634Y364867D01*
X170503Y365227D01*
X171249Y365799D01*
X171822Y366545D01*
X172181Y367414D01*
X172304Y368347D01*
X172181Y369279D01*
X171822Y370148D01*
X171249Y370894D01*
X170503Y371466D01*
X169634Y371826D01*
X168702Y371949D01*
D02*
G37*
G36*
X158702D02*
X157769Y371826D01*
X156901Y371466D01*
X156155Y370894D01*
X155582Y370148D01*
X155222Y369279D01*
X155099Y368347D01*
X155222Y367414D01*
X155582Y366545D01*
X156155Y365799D01*
X156901Y365227D01*
X157769Y364867D01*
X158702Y364744D01*
X159634Y364867D01*
X160503Y365227D01*
X161249Y365799D01*
X161822Y366545D01*
X162181Y367414D01*
X162304Y368347D01*
X162181Y369279D01*
X161822Y370148D01*
X161249Y370894D01*
X160503Y371466D01*
X159634Y371826D01*
X158702Y371949D01*
D02*
G37*
G36*
X368702D02*
X367769Y371826D01*
X366901Y371466D01*
X366155Y370894D01*
X365582Y370148D01*
X365222Y369279D01*
X365099Y368347D01*
X365222Y367414D01*
X365582Y366545D01*
X366155Y365799D01*
X366901Y365227D01*
X367769Y364867D01*
X368668Y364749D01*
X368635Y364248D01*
X365035D01*
X362090Y367193D01*
X362181Y367414D01*
X362304Y368347D01*
X362181Y369279D01*
X361822Y370148D01*
X361249Y370894D01*
X360503Y371466D01*
X359634Y371826D01*
X358702Y371949D01*
X357769Y371826D01*
X356901Y371466D01*
X356154Y370894D01*
X355582Y370148D01*
X355222Y369279D01*
X355099Y368347D01*
X355222Y367414D01*
X355582Y366545D01*
X356154Y365799D01*
X356901Y365227D01*
X357769Y364867D01*
X358702Y364744D01*
X359634Y364867D01*
X359855Y364958D01*
X363263Y361551D01*
X363775Y361208D01*
X364380Y361088D01*
X365673D01*
X365920Y360588D01*
X365582Y360148D01*
X365222Y359279D01*
X365099Y358347D01*
X365222Y357414D01*
X365582Y356545D01*
X366155Y355799D01*
X366901Y355227D01*
X367769Y354867D01*
X368702Y354744D01*
X369634Y354867D01*
X370503Y355227D01*
X371249Y355799D01*
X371822Y356545D01*
X372182Y357414D01*
X372254Y357964D01*
X372782Y358143D01*
X416136Y314789D01*
Y291894D01*
X416052Y291859D01*
X415363Y291330D01*
X414834Y290641D01*
X414501Y289838D01*
X414388Y288976D01*
X414501Y288115D01*
X414834Y287312D01*
X415363Y286623D01*
X416052Y286094D01*
X416855Y285761D01*
X417717Y285648D01*
X418578Y285761D01*
X419381Y286094D01*
X420070Y286623D01*
X420599Y287312D01*
X420932Y288115D01*
X421045Y288976D01*
X420932Y289838D01*
X420599Y290641D01*
X420070Y291330D01*
X419381Y291859D01*
X419297Y291894D01*
Y315443D01*
X419177Y316048D01*
X418834Y316561D01*
X371609Y363786D01*
X371097Y364128D01*
X370492Y364248D01*
X368769D01*
X368736Y364749D01*
X369634Y364867D01*
X370503Y365227D01*
X371249Y365799D01*
X371822Y366545D01*
X372182Y367414D01*
X372304Y368347D01*
X372182Y369279D01*
X371822Y370148D01*
X371249Y370894D01*
X370503Y371466D01*
X369634Y371826D01*
X368702Y371949D01*
D02*
G37*
G36*
X33563Y367211D02*
X32558Y367079D01*
X31621Y366691D01*
X30816Y366073D01*
X30199Y365269D01*
X29811Y364332D01*
X29679Y363327D01*
X29811Y362321D01*
X30199Y361385D01*
X30816Y360580D01*
X31621Y359963D01*
X32558Y359575D01*
X33563Y359442D01*
X34568Y359575D01*
X35505Y359963D01*
X36310Y360580D01*
X36927Y361385D01*
X37315Y362321D01*
X37447Y363327D01*
X37315Y364332D01*
X36927Y365269D01*
X36310Y366073D01*
X35505Y366691D01*
X34568Y367079D01*
X33563Y367211D01*
D02*
G37*
G36*
X368702Y391949D02*
X367769Y391826D01*
X366901Y391466D01*
X366155Y390894D01*
X365582Y390148D01*
X365222Y389279D01*
X365099Y388347D01*
X365222Y387414D01*
X365582Y386545D01*
X366155Y385799D01*
X366901Y385227D01*
X367769Y384867D01*
X368702Y384744D01*
X369634Y384867D01*
X370503Y385227D01*
X371249Y385799D01*
X371822Y386545D01*
X371913Y386766D01*
X393755D01*
X415544Y364977D01*
X415033Y363741D01*
X414841Y362283D01*
X415033Y360826D01*
X415595Y359468D01*
X416490Y358301D01*
X417657Y357406D01*
X419015Y356844D01*
X420472Y356652D01*
X421930Y356844D01*
X423288Y357406D01*
X424455Y358301D01*
X425350Y359468D01*
X425912Y360826D01*
X426104Y362283D01*
X425912Y363741D01*
X425350Y365099D01*
X424455Y366266D01*
X423288Y367161D01*
X421930Y367723D01*
X420472Y367915D01*
X419015Y367723D01*
X417779Y367212D01*
X395527Y389464D01*
X395014Y389807D01*
X394409Y389927D01*
X371913D01*
X371822Y390148D01*
X371249Y390894D01*
X370503Y391466D01*
X369634Y391826D01*
X368702Y391949D01*
D02*
G37*
G36*
X358702Y361949D02*
X357769Y361826D01*
X356901Y361466D01*
X356154Y360894D01*
X355582Y360148D01*
X355222Y359279D01*
X355099Y358347D01*
X355222Y357414D01*
X355582Y356545D01*
X356154Y355799D01*
X356901Y355227D01*
X357769Y354867D01*
X358702Y354744D01*
X359634Y354867D01*
X360503Y355227D01*
X361249Y355799D01*
X361822Y356545D01*
X362181Y357414D01*
X362304Y358347D01*
X362181Y359279D01*
X361822Y360148D01*
X361249Y360894D01*
X360503Y361466D01*
X359634Y361826D01*
X358702Y361949D01*
D02*
G37*
G36*
X33563Y357211D02*
X32558Y357079D01*
X31621Y356691D01*
X30816Y356073D01*
X30199Y355269D01*
X29811Y354332D01*
X29679Y353327D01*
X29811Y352321D01*
X30199Y351385D01*
X30816Y350580D01*
X31621Y349963D01*
X32558Y349575D01*
X33563Y349442D01*
X34568Y349575D01*
X35505Y349963D01*
X36310Y350580D01*
X36927Y351385D01*
X37315Y352321D01*
X37447Y353327D01*
X37315Y354332D01*
X36927Y355269D01*
X36310Y356073D01*
X35505Y356691D01*
X34568Y357079D01*
X33563Y357211D01*
D02*
G37*
G36*
X368702Y351949D02*
X367769Y351826D01*
X366901Y351466D01*
X366155Y350894D01*
X365582Y350148D01*
X365222Y349279D01*
X365099Y348346D01*
X365222Y347414D01*
X365582Y346545D01*
X366155Y345799D01*
X366901Y345227D01*
X367769Y344867D01*
X368702Y344744D01*
X369634Y344867D01*
X370503Y345227D01*
X371249Y345799D01*
X371822Y346545D01*
X372182Y347414D01*
X372304Y348346D01*
X372182Y349279D01*
X371822Y350148D01*
X371249Y350894D01*
X370503Y351466D01*
X369634Y351826D01*
X368702Y351949D01*
D02*
G37*
G36*
X358702D02*
X357769Y351826D01*
X356901Y351466D01*
X356154Y350894D01*
X355582Y350148D01*
X355222Y349279D01*
X355099Y348346D01*
X355222Y347414D01*
X355582Y346545D01*
X356154Y345799D01*
X356901Y345227D01*
X357769Y344867D01*
X358702Y344744D01*
X359634Y344867D01*
X360503Y345227D01*
X361249Y345799D01*
X361822Y346545D01*
X362181Y347414D01*
X362304Y348346D01*
X362181Y349279D01*
X361822Y350148D01*
X361249Y350894D01*
X360503Y351466D01*
X359634Y351826D01*
X358702Y351949D01*
D02*
G37*
G36*
X168702D02*
X167769Y351826D01*
X166901Y351466D01*
X166155Y350894D01*
X165582Y350148D01*
X165222Y349279D01*
X165099Y348346D01*
X165222Y347414D01*
X165582Y346545D01*
X166155Y345799D01*
X166901Y345227D01*
X167769Y344867D01*
X168702Y344744D01*
X169634Y344867D01*
X170503Y345227D01*
X171249Y345799D01*
X171822Y346545D01*
X172181Y347414D01*
X172304Y348346D01*
X172181Y349279D01*
X171822Y350148D01*
X171249Y350894D01*
X170503Y351466D01*
X169634Y351826D01*
X168702Y351949D01*
D02*
G37*
G36*
X37414Y347178D02*
X29712D01*
Y339476D01*
X37414D01*
Y347178D01*
D02*
G37*
G36*
X368702Y341949D02*
X367769Y341826D01*
X366901Y341466D01*
X366155Y340894D01*
X365582Y340148D01*
X365222Y339279D01*
X365099Y338347D01*
X365222Y337414D01*
X365582Y336545D01*
X366155Y335799D01*
X366901Y335227D01*
X367769Y334867D01*
X368702Y334744D01*
X369634Y334867D01*
X370503Y335227D01*
X371249Y335799D01*
X371822Y336545D01*
X372182Y337414D01*
X372304Y338347D01*
X372182Y339279D01*
X371822Y340148D01*
X371249Y340894D01*
X370503Y341466D01*
X369634Y341826D01*
X368702Y341949D01*
D02*
G37*
G36*
X358702D02*
X357769Y341826D01*
X356901Y341466D01*
X356154Y340894D01*
X355582Y340148D01*
X355222Y339279D01*
X355099Y338347D01*
X355222Y337414D01*
X355582Y336545D01*
X356154Y335799D01*
X356901Y335227D01*
X357769Y334867D01*
X358702Y334744D01*
X359634Y334867D01*
X360503Y335227D01*
X361249Y335799D01*
X361822Y336545D01*
X362181Y337414D01*
X362304Y338347D01*
X362181Y339279D01*
X361822Y340148D01*
X361249Y340894D01*
X360503Y341466D01*
X359634Y341826D01*
X358702Y341949D01*
D02*
G37*
G36*
X168702D02*
X167769Y341826D01*
X166901Y341466D01*
X166155Y340894D01*
X165582Y340148D01*
X165222Y339279D01*
X165099Y338347D01*
X165222Y337414D01*
X165582Y336545D01*
X166155Y335799D01*
X166901Y335227D01*
X167769Y334867D01*
X168702Y334744D01*
X169634Y334867D01*
X170503Y335227D01*
X171249Y335799D01*
X171822Y336545D01*
X172181Y337414D01*
X172304Y338347D01*
X172181Y339279D01*
X171822Y340148D01*
X171249Y340894D01*
X170503Y341466D01*
X169634Y341826D01*
X168702Y341949D01*
D02*
G37*
G36*
X158702D02*
X157769Y341826D01*
X156901Y341466D01*
X156155Y340894D01*
X155582Y340148D01*
X155222Y339279D01*
X155099Y338347D01*
X155222Y337414D01*
X155582Y336545D01*
X156155Y335799D01*
X156901Y335227D01*
X157769Y334867D01*
X158702Y334744D01*
X159634Y334867D01*
X160503Y335227D01*
X161249Y335799D01*
X161822Y336545D01*
X162181Y337414D01*
X162304Y338347D01*
X162181Y339279D01*
X161822Y340148D01*
X161249Y340894D01*
X160503Y341466D01*
X159634Y341826D01*
X158702Y341949D01*
D02*
G37*
G36*
X213779Y463958D02*
X212918Y463845D01*
X212115Y463513D01*
X211426Y462984D01*
X210897Y462294D01*
X210564Y461491D01*
X210451Y460630D01*
X210564Y459768D01*
X210897Y458966D01*
X210906Y458954D01*
X210745Y458713D01*
X210624Y458108D01*
Y337563D01*
X210541Y337528D01*
X209851Y336999D01*
X209322Y336310D01*
X208990Y335507D01*
X208876Y334646D01*
X208990Y333784D01*
X209322Y332981D01*
X209851Y332292D01*
X210541Y331763D01*
X211343Y331431D01*
X212205Y331317D01*
X213066Y331431D01*
X213869Y331763D01*
X214558Y332292D01*
X215087Y332981D01*
X215420Y333784D01*
X215533Y334646D01*
X215420Y335507D01*
X215087Y336310D01*
X214558Y336999D01*
X213869Y337528D01*
X213785Y337563D01*
Y457302D01*
X214641Y457415D01*
X215444Y457747D01*
X216133Y458276D01*
X216662Y458966D01*
X216995Y459768D01*
X217108Y460630D01*
X216995Y461491D01*
X216662Y462294D01*
X216133Y462984D01*
X215444Y463513D01*
X214641Y463845D01*
X213779Y463958D01*
D02*
G37*
G36*
X368702Y331949D02*
X367769Y331826D01*
X366901Y331466D01*
X366155Y330894D01*
X365582Y330148D01*
X365222Y329279D01*
X365099Y328346D01*
X365222Y327414D01*
X365582Y326545D01*
X366155Y325799D01*
X366901Y325227D01*
X367769Y324867D01*
X368702Y324744D01*
X369634Y324867D01*
X370503Y325227D01*
X371249Y325799D01*
X371822Y326545D01*
X372182Y327414D01*
X372304Y328346D01*
X372182Y329279D01*
X371822Y330148D01*
X371249Y330894D01*
X370503Y331466D01*
X369634Y331826D01*
X368702Y331949D01*
D02*
G37*
G36*
X358702D02*
X357769Y331826D01*
X356901Y331466D01*
X356154Y330894D01*
X355582Y330148D01*
X355222Y329279D01*
X355099Y328346D01*
X355222Y327414D01*
X355582Y326545D01*
X356154Y325799D01*
X356901Y325227D01*
X357769Y324867D01*
X358702Y324744D01*
X359634Y324867D01*
X360503Y325227D01*
X361249Y325799D01*
X361822Y326545D01*
X362181Y327414D01*
X362304Y328346D01*
X362181Y329279D01*
X361822Y330148D01*
X361249Y330894D01*
X360503Y331466D01*
X359634Y331826D01*
X358702Y331949D01*
D02*
G37*
G36*
X168702D02*
X167769Y331826D01*
X166901Y331466D01*
X166155Y330894D01*
X165582Y330148D01*
X165222Y329279D01*
X165099Y328346D01*
X165222Y327414D01*
X165582Y326545D01*
X166155Y325799D01*
X166901Y325227D01*
X167769Y324867D01*
X168702Y324744D01*
X169634Y324867D01*
X170503Y325227D01*
X171249Y325799D01*
X171822Y326545D01*
X172181Y327414D01*
X172304Y328346D01*
X172181Y329279D01*
X171822Y330148D01*
X171249Y330894D01*
X170503Y331466D01*
X169634Y331826D01*
X168702Y331949D01*
D02*
G37*
G36*
X158702D02*
X157769Y331826D01*
X156901Y331466D01*
X156155Y330894D01*
X155582Y330148D01*
X155222Y329279D01*
X155099Y328346D01*
X155222Y327414D01*
X155582Y326545D01*
X156155Y325799D01*
X156901Y325227D01*
X157769Y324867D01*
X158702Y324744D01*
X159634Y324867D01*
X160503Y325227D01*
X161249Y325799D01*
X161822Y326545D01*
X162181Y327414D01*
X162304Y328346D01*
X162181Y329279D01*
X161822Y330148D01*
X161249Y330894D01*
X160503Y331466D01*
X159634Y331826D01*
X158702Y331949D01*
D02*
G37*
G36*
X368702Y321949D02*
X367769Y321826D01*
X366901Y321466D01*
X366155Y320894D01*
X365582Y320148D01*
X365222Y319279D01*
X365099Y318347D01*
X365222Y317414D01*
X365582Y316545D01*
X366155Y315799D01*
X366901Y315227D01*
X367769Y314867D01*
X368702Y314744D01*
X369634Y314867D01*
X370503Y315227D01*
X371249Y315799D01*
X371822Y316545D01*
X372182Y317414D01*
X372304Y318347D01*
X372182Y319279D01*
X371822Y320148D01*
X371249Y320894D01*
X370503Y321466D01*
X369634Y321826D01*
X368702Y321949D01*
D02*
G37*
G36*
X358702D02*
X357769Y321826D01*
X356901Y321466D01*
X356154Y320894D01*
X355582Y320148D01*
X355222Y319279D01*
X355099Y318347D01*
X355222Y317414D01*
X355582Y316545D01*
X356154Y315799D01*
X356901Y315227D01*
X357769Y314867D01*
X358702Y314744D01*
X359634Y314867D01*
X360503Y315227D01*
X361249Y315799D01*
X361822Y316545D01*
X362181Y317414D01*
X362304Y318347D01*
X362181Y319279D01*
X361822Y320148D01*
X361249Y320894D01*
X360503Y321466D01*
X359634Y321826D01*
X358702Y321949D01*
D02*
G37*
G36*
X168702D02*
X167769Y321826D01*
X166901Y321466D01*
X166155Y320894D01*
X165582Y320148D01*
X165222Y319279D01*
X165099Y318347D01*
X165222Y317414D01*
X165582Y316545D01*
X166155Y315799D01*
X166901Y315227D01*
X167769Y314867D01*
X168702Y314744D01*
X169634Y314867D01*
X170503Y315227D01*
X171249Y315799D01*
X171822Y316545D01*
X172181Y317414D01*
X172304Y318347D01*
X172181Y319279D01*
X171822Y320148D01*
X171249Y320894D01*
X170503Y321466D01*
X169634Y321826D01*
X168702Y321949D01*
D02*
G37*
G36*
X158702D02*
X157769Y321826D01*
X156901Y321466D01*
X156155Y320894D01*
X155582Y320148D01*
X155222Y319279D01*
X155099Y318347D01*
X155222Y317414D01*
X155582Y316545D01*
X156155Y315799D01*
X156901Y315227D01*
X157769Y314867D01*
X158702Y314744D01*
X159634Y314867D01*
X160503Y315227D01*
X161249Y315799D01*
X161822Y316545D01*
X162181Y317414D01*
X162304Y318347D01*
X162181Y319279D01*
X161822Y320148D01*
X161249Y320894D01*
X160503Y321466D01*
X159634Y321826D01*
X158702Y321949D01*
D02*
G37*
G36*
X198819Y465533D02*
X197957Y465420D01*
X197155Y465087D01*
X196465Y464558D01*
X195936Y463869D01*
X195604Y463066D01*
X195490Y462205D01*
X195604Y461343D01*
X195936Y460540D01*
X196465Y459851D01*
X197155Y459322D01*
X197239Y459287D01*
Y339118D01*
X169855Y311735D01*
X169634Y311826D01*
X168702Y311949D01*
X167769Y311826D01*
X166901Y311466D01*
X166155Y310894D01*
X165582Y310148D01*
X165222Y309279D01*
X165099Y308347D01*
X165222Y307414D01*
X165582Y306545D01*
X166155Y305799D01*
X166901Y305227D01*
X167769Y304867D01*
X168702Y304744D01*
X169634Y304867D01*
X170503Y305227D01*
X171249Y305799D01*
X171822Y306545D01*
X172181Y307414D01*
X172304Y308347D01*
X172181Y309279D01*
X172090Y309500D01*
X199936Y337346D01*
X200279Y337859D01*
X200399Y338464D01*
Y459287D01*
X200483Y459322D01*
X201172Y459851D01*
X201701Y460540D01*
X202034Y461343D01*
X202147Y462205D01*
X202034Y463066D01*
X201701Y463869D01*
X201172Y464558D01*
X200483Y465087D01*
X199680Y465420D01*
X198819Y465533D01*
D02*
G37*
G36*
X368702Y311949D02*
X367769Y311826D01*
X366901Y311466D01*
X366155Y310894D01*
X365582Y310148D01*
X365222Y309279D01*
X365099Y308347D01*
X365222Y307414D01*
X365582Y306545D01*
X366155Y305799D01*
X366901Y305227D01*
X367769Y304867D01*
X368702Y304744D01*
X369634Y304867D01*
X370503Y305227D01*
X371249Y305799D01*
X371822Y306545D01*
X372182Y307414D01*
X372304Y308347D01*
X372182Y309279D01*
X371822Y310148D01*
X371249Y310894D01*
X370503Y311466D01*
X369634Y311826D01*
X368702Y311949D01*
D02*
G37*
G36*
X358702D02*
X357769Y311826D01*
X356901Y311466D01*
X356154Y310894D01*
X355582Y310148D01*
X355222Y309279D01*
X355099Y308347D01*
X355222Y307414D01*
X355582Y306545D01*
X356154Y305799D01*
X356901Y305227D01*
X357769Y304867D01*
X358702Y304744D01*
X359634Y304867D01*
X360503Y305227D01*
X361249Y305799D01*
X361822Y306545D01*
X362181Y307414D01*
X362304Y308347D01*
X362181Y309279D01*
X361822Y310148D01*
X361249Y310894D01*
X360503Y311466D01*
X359634Y311826D01*
X358702Y311949D01*
D02*
G37*
G36*
X158702D02*
X157769Y311826D01*
X156901Y311466D01*
X156155Y310894D01*
X155582Y310148D01*
X155222Y309279D01*
X155099Y308347D01*
X155222Y307414D01*
X155582Y306545D01*
X156155Y305799D01*
X156901Y305227D01*
X157769Y304867D01*
X158702Y304744D01*
X159634Y304867D01*
X160503Y305227D01*
X161249Y305799D01*
X161822Y306545D01*
X162181Y307414D01*
X162304Y308347D01*
X162181Y309279D01*
X161822Y310148D01*
X161249Y310894D01*
X160503Y311466D01*
X159634Y311826D01*
X158702Y311949D01*
D02*
G37*
G36*
X206299Y464746D02*
X205438Y464632D01*
X204635Y464300D01*
X203946Y463771D01*
X203417Y463082D01*
X203084Y462279D01*
X202971Y461417D01*
X203084Y460556D01*
X203417Y459753D01*
X203946Y459064D01*
X204635Y458535D01*
X204719Y458500D01*
Y336598D01*
X169855Y301735D01*
X169634Y301826D01*
X168702Y301949D01*
X167769Y301826D01*
X166901Y301466D01*
X166155Y300894D01*
X165582Y300148D01*
X165222Y299279D01*
X165099Y298346D01*
X165222Y297414D01*
X165582Y296545D01*
X166155Y295799D01*
X166901Y295227D01*
X167769Y294867D01*
X168702Y294744D01*
X169634Y294867D01*
X170503Y295227D01*
X171249Y295799D01*
X171822Y296545D01*
X172181Y297414D01*
X172304Y298346D01*
X172181Y299279D01*
X172090Y299500D01*
X207417Y334826D01*
X207759Y335339D01*
X207880Y335944D01*
Y458500D01*
X207963Y458535D01*
X208653Y459064D01*
X209182Y459753D01*
X209514Y460556D01*
X209628Y461417D01*
X209514Y462279D01*
X209182Y463082D01*
X208653Y463771D01*
X207963Y464300D01*
X207161Y464632D01*
X206299Y464746D01*
D02*
G37*
G36*
X368702Y301949D02*
X367769Y301826D01*
X366901Y301466D01*
X366155Y300894D01*
X365582Y300148D01*
X365222Y299279D01*
X365099Y298346D01*
X365222Y297414D01*
X365582Y296545D01*
X366155Y295799D01*
X366901Y295227D01*
X367769Y294867D01*
X368702Y294744D01*
X369634Y294867D01*
X370503Y295227D01*
X371249Y295799D01*
X371822Y296545D01*
X372182Y297414D01*
X372304Y298346D01*
X372182Y299279D01*
X371822Y300148D01*
X371249Y300894D01*
X370503Y301466D01*
X369634Y301826D01*
X368702Y301949D01*
D02*
G37*
G36*
X358702D02*
X357769Y301826D01*
X356901Y301466D01*
X356154Y300894D01*
X355582Y300148D01*
X355222Y299279D01*
X355099Y298346D01*
X355222Y297414D01*
X355582Y296545D01*
X356154Y295799D01*
X356901Y295227D01*
X357769Y294867D01*
X358702Y294744D01*
X359634Y294867D01*
X360503Y295227D01*
X361249Y295799D01*
X361822Y296545D01*
X362181Y297414D01*
X362304Y298346D01*
X362181Y299279D01*
X361822Y300148D01*
X361249Y300894D01*
X360503Y301466D01*
X359634Y301826D01*
X358702Y301949D01*
D02*
G37*
G36*
X158702D02*
X157769Y301826D01*
X156901Y301466D01*
X156155Y300894D01*
X155582Y300148D01*
X155222Y299279D01*
X155099Y298346D01*
X155222Y297414D01*
X155582Y296545D01*
X156155Y295799D01*
X156901Y295227D01*
X157769Y294867D01*
X158702Y294744D01*
X159634Y294867D01*
X160503Y295227D01*
X161249Y295799D01*
X161822Y296545D01*
X162181Y297414D01*
X162304Y298346D01*
X162181Y299279D01*
X161822Y300148D01*
X161249Y300894D01*
X160503Y301466D01*
X159634Y301826D01*
X158702Y301949D01*
D02*
G37*
G36*
X47457Y291607D02*
Y286906D01*
X52158D01*
X52091Y287415D01*
X51508Y288822D01*
X50582Y290030D01*
X49373Y290957D01*
X47967Y291540D01*
X47457Y291607D01*
D02*
G37*
G36*
X45457Y291607D02*
X44947Y291540D01*
X43540Y290957D01*
X42332Y290030D01*
X41405Y288822D01*
X40822Y287415D01*
X40755Y286906D01*
X45457D01*
Y291607D01*
D02*
G37*
G36*
X368702Y291949D02*
X367769Y291826D01*
X366901Y291466D01*
X366155Y290894D01*
X365582Y290148D01*
X365222Y289279D01*
X365099Y288347D01*
X365222Y287414D01*
X365582Y286545D01*
X366155Y285799D01*
X366901Y285227D01*
X367769Y284867D01*
X368702Y284744D01*
X369634Y284867D01*
X370503Y285227D01*
X371249Y285799D01*
X371822Y286545D01*
X372182Y287414D01*
X372304Y288347D01*
X372182Y289279D01*
X371822Y290148D01*
X371249Y290894D01*
X370503Y291466D01*
X369634Y291826D01*
X368702Y291949D01*
D02*
G37*
G36*
X358702D02*
X357769Y291826D01*
X356901Y291466D01*
X356154Y290894D01*
X355582Y290148D01*
X355222Y289279D01*
X355099Y288347D01*
X355222Y287414D01*
X355582Y286545D01*
X356154Y285799D01*
X356901Y285227D01*
X357769Y284867D01*
X358702Y284744D01*
X359634Y284867D01*
X360503Y285227D01*
X361249Y285799D01*
X361822Y286545D01*
X362181Y287414D01*
X362304Y288347D01*
X362181Y289279D01*
X361822Y290148D01*
X361249Y290894D01*
X360503Y291466D01*
X359634Y291826D01*
X358702Y291949D01*
D02*
G37*
G36*
X168702D02*
X167769Y291826D01*
X166901Y291466D01*
X166155Y290894D01*
X165582Y290148D01*
X165222Y289279D01*
X165099Y288347D01*
X165222Y287414D01*
X165582Y286545D01*
X166155Y285799D01*
X166901Y285227D01*
X167769Y284867D01*
X168702Y284744D01*
X169634Y284867D01*
X170503Y285227D01*
X171249Y285799D01*
X171822Y286545D01*
X172181Y287414D01*
X172304Y288347D01*
X172181Y289279D01*
X171822Y290148D01*
X171249Y290894D01*
X170503Y291466D01*
X169634Y291826D01*
X168702Y291949D01*
D02*
G37*
G36*
X158702D02*
X157769Y291826D01*
X156901Y291466D01*
X156155Y290894D01*
X155582Y290148D01*
X155222Y289279D01*
X155099Y288347D01*
X155222Y287414D01*
X155582Y286545D01*
X156155Y285799D01*
X156901Y285227D01*
X157769Y284867D01*
X158702Y284744D01*
X159634Y284867D01*
X160503Y285227D01*
X161249Y285799D01*
X161822Y286545D01*
X162181Y287414D01*
X162304Y288347D01*
X162181Y289279D01*
X161822Y290148D01*
X161249Y290894D01*
X160503Y291466D01*
X159634Y291826D01*
X158702Y291949D01*
D02*
G37*
G36*
X45457Y284906D02*
X40755D01*
X40822Y284396D01*
X41405Y282989D01*
X42332Y281781D01*
X43540Y280854D01*
X44947Y280271D01*
X45457Y280204D01*
Y284906D01*
D02*
G37*
G36*
X52158D02*
X47457D01*
Y280204D01*
X47967Y280271D01*
X49373Y280854D01*
X50582Y281781D01*
X51508Y282989D01*
X52091Y284396D01*
X52158Y284906D01*
D02*
G37*
G36*
X369702Y282015D02*
Y279346D01*
X372370D01*
X371996Y280249D01*
X371392Y281036D01*
X370604Y281641D01*
X369702Y282015D01*
D02*
G37*
G36*
X367702D02*
X366800Y281641D01*
X366012Y281036D01*
X365407Y280249D01*
X365034Y279346D01*
X367702D01*
Y282015D01*
D02*
G37*
G36*
X359702D02*
Y279346D01*
X362370D01*
X361996Y280249D01*
X361392Y281036D01*
X360604Y281641D01*
X359702Y282015D01*
D02*
G37*
G36*
X357702D02*
X356800Y281641D01*
X356012Y281036D01*
X355407Y280249D01*
X355034Y279346D01*
X357702D01*
Y282015D01*
D02*
G37*
G36*
X169702D02*
Y279346D01*
X172370D01*
X171996Y280249D01*
X171392Y281036D01*
X170604Y281641D01*
X169702Y282015D01*
D02*
G37*
G36*
X167702D02*
X166800Y281641D01*
X166012Y281036D01*
X165407Y280249D01*
X165034Y279346D01*
X167702D01*
Y282015D01*
D02*
G37*
G36*
X159702D02*
Y279346D01*
X162370D01*
X161996Y280249D01*
X161392Y281036D01*
X160604Y281641D01*
X159702Y282015D01*
D02*
G37*
G36*
X157702D02*
X156800Y281641D01*
X156012Y281036D01*
X155407Y280249D01*
X155034Y279346D01*
X157702D01*
Y282015D01*
D02*
G37*
G36*
X372370Y277346D02*
X369702D01*
Y274678D01*
X370604Y275052D01*
X371392Y275657D01*
X371996Y276444D01*
X372370Y277346D01*
D02*
G37*
G36*
X367702D02*
X365034D01*
X365407Y276444D01*
X366012Y275657D01*
X366800Y275052D01*
X367702Y274678D01*
Y277346D01*
D02*
G37*
G36*
X362370D02*
X359702D01*
Y274678D01*
X360604Y275052D01*
X361392Y275657D01*
X361996Y276444D01*
X362370Y277346D01*
D02*
G37*
G36*
X357702D02*
X355034D01*
X355407Y276444D01*
X356012Y275657D01*
X356800Y275052D01*
X357702Y274678D01*
Y277346D01*
D02*
G37*
G36*
X172370D02*
X169702D01*
Y274678D01*
X170604Y275052D01*
X171392Y275657D01*
X171996Y276444D01*
X172370Y277346D01*
D02*
G37*
G36*
X167702D02*
X165034D01*
X165407Y276444D01*
X166012Y275657D01*
X166800Y275052D01*
X167702Y274678D01*
Y277346D01*
D02*
G37*
G36*
X162370D02*
X159702D01*
Y274678D01*
X160604Y275052D01*
X161392Y275657D01*
X161996Y276444D01*
X162370Y277346D01*
D02*
G37*
G36*
X157702D02*
X155034D01*
X155407Y276444D01*
X156012Y275657D01*
X156800Y275052D01*
X157702Y274678D01*
Y277346D01*
D02*
G37*
G36*
X46457Y271537D02*
X44999Y271345D01*
X43641Y270783D01*
X42474Y269888D01*
X41580Y268721D01*
X41017Y267363D01*
X40825Y265905D01*
X41017Y264448D01*
X41580Y263090D01*
X42474Y261923D01*
X43641Y261028D01*
X44999Y260466D01*
X46457Y260274D01*
X47914Y260466D01*
X49273Y261028D01*
X50439Y261923D01*
X51334Y263090D01*
X51896Y264448D01*
X52088Y265905D01*
X51896Y267363D01*
X51334Y268721D01*
X50439Y269888D01*
X49273Y270783D01*
X47914Y271345D01*
X46457Y271537D01*
D02*
G37*
G36*
X49878Y231984D02*
X45094D01*
Y227201D01*
X49878D01*
Y231984D01*
D02*
G37*
G36*
X43095D02*
X38311D01*
Y227201D01*
X43095D01*
Y231984D01*
D02*
G37*
G36*
X49878Y225201D02*
X45094D01*
Y220417D01*
X49878D01*
Y225201D01*
D02*
G37*
G36*
X43095D02*
X38311D01*
Y220417D01*
X43095D01*
Y225201D01*
D02*
G37*
G36*
X52040Y311489D02*
X40873D01*
Y300322D01*
X45283D01*
X128984Y216621D01*
X129973Y215862D01*
X131126Y215385D01*
X132362Y215222D01*
X208549D01*
Y214597D01*
X201274Y207322D01*
X200515Y206332D01*
X200038Y205180D01*
X199875Y203943D01*
Y176057D01*
X200038Y174820D01*
X200515Y173668D01*
X201274Y172678D01*
X209002Y164951D01*
Y151174D01*
X208196D01*
Y146764D01*
X200881Y139449D01*
X200121Y138459D01*
X199644Y137307D01*
X199481Y136070D01*
Y101647D01*
X199644Y100410D01*
X200121Y99258D01*
X200881Y98269D01*
X209395Y89754D01*
Y77079D01*
X208590D01*
Y65913D01*
X219757D01*
Y66403D01*
X271841D01*
X272381Y65989D01*
X273739Y65426D01*
X275197Y65235D01*
X276654Y65426D01*
X278013Y65989D01*
X279179Y66884D01*
X280074Y68050D01*
X280637Y69409D01*
X280828Y70866D01*
X280637Y72324D01*
X280074Y73682D01*
X279179Y74848D01*
X278013Y75743D01*
X276654Y76306D01*
X275197Y76498D01*
X273739Y76306D01*
X272902Y75959D01*
X219757D01*
Y77079D01*
X218951D01*
Y91733D01*
X218788Y92970D01*
X218311Y94122D01*
X217552Y95111D01*
X213323Y99340D01*
X213545Y99788D01*
X213779Y99757D01*
X215289Y99956D01*
X216696Y100539D01*
X217904Y101466D01*
X218831Y102674D01*
X219414Y104081D01*
X219481Y104591D01*
X213779D01*
Y105591D01*
X212779D01*
Y111292D01*
X212270Y111225D01*
X210863Y110642D01*
X209655Y109715D01*
X209510Y109527D01*
X209037Y109688D01*
Y121822D01*
X209510Y121982D01*
X209797Y121608D01*
X210964Y120713D01*
X212322Y120151D01*
X213779Y119959D01*
X215237Y120151D01*
X216595Y120713D01*
X217762Y121608D01*
X218657Y122775D01*
X219168Y124010D01*
X270202D01*
X270713Y122775D01*
X271608Y121608D01*
X272775Y120713D01*
X274133Y120151D01*
X275590Y119959D01*
X277048Y120151D01*
X278406Y120713D01*
X279573Y121608D01*
X280468Y122775D01*
X281030Y124133D01*
X281222Y125591D01*
X281030Y127048D01*
X280468Y128406D01*
X279573Y129573D01*
X278406Y130468D01*
X277048Y131030D01*
X275590Y131222D01*
X274133Y131030D01*
X272775Y130468D01*
X271608Y129573D01*
X270713Y128406D01*
X270202Y127171D01*
X219168D01*
X218657Y128406D01*
X217762Y129573D01*
X216595Y130468D01*
X215237Y131030D01*
X213779Y131222D01*
X212322Y131030D01*
X210964Y130468D01*
X209797Y129573D01*
X209510Y129199D01*
X209037Y129359D01*
Y134091D01*
X214953Y140007D01*
X219363D01*
Y140813D01*
X272645D01*
X272775Y140713D01*
X274133Y140151D01*
X275590Y139959D01*
X277048Y140151D01*
X278406Y140713D01*
X279573Y141608D01*
X280468Y142775D01*
X281030Y144133D01*
X281222Y145591D01*
X281030Y147048D01*
X280468Y148406D01*
X279573Y149573D01*
X278406Y150468D01*
X277048Y151030D01*
X275590Y151222D01*
X274133Y151030D01*
X272775Y150468D01*
X272645Y150368D01*
X219363D01*
Y151174D01*
X218557D01*
Y166930D01*
X218557Y166930D01*
X218395Y168166D01*
X217917Y169319D01*
X217158Y170308D01*
X213717Y173749D01*
X213938Y174198D01*
X214173Y174167D01*
X215683Y174365D01*
X217090Y174948D01*
X218298Y175875D01*
X219225Y177083D01*
X219808Y178490D01*
X219875Y179000D01*
X214173D01*
Y180000D01*
X213173D01*
Y185702D01*
X212663Y185635D01*
X211257Y185052D01*
X210048Y184125D01*
X209904Y183937D01*
X209431Y184098D01*
Y196231D01*
X209904Y196392D01*
X210191Y196018D01*
X211357Y195123D01*
X212716Y194560D01*
X214173Y194368D01*
X215631Y194560D01*
X216989Y195123D01*
X218155Y196018D01*
X219050Y197184D01*
X219613Y198542D01*
X219623Y198617D01*
X271858D01*
X272288Y197578D01*
X273183Y196412D01*
X274349Y195517D01*
X275708Y194954D01*
X277165Y194762D01*
X278623Y194954D01*
X279981Y195517D01*
X281148Y196412D01*
X282043Y197578D01*
X282605Y198936D01*
X282797Y200394D01*
X282605Y201851D01*
X282043Y203209D01*
X281148Y204376D01*
X279981Y205271D01*
X278623Y205833D01*
X277165Y206025D01*
X275708Y205833D01*
X274349Y205271D01*
X273183Y204376D01*
X272288Y203209D01*
X271726Y201851D01*
X271716Y201777D01*
X219481D01*
X219050Y202816D01*
X218155Y203982D01*
X216989Y204877D01*
X215631Y205440D01*
X214173Y205632D01*
X213706Y205570D01*
X213485Y206019D01*
X216705Y209239D01*
X217464Y210229D01*
X217942Y211381D01*
X218105Y212617D01*
Y214417D01*
X219757D01*
Y215419D01*
X274585D01*
X275708Y214954D01*
X277165Y214762D01*
X278623Y214954D01*
X279981Y215517D01*
X281148Y216411D01*
X282043Y217578D01*
X282605Y218936D01*
X282797Y220394D01*
X282605Y221851D01*
X282043Y223210D01*
X281148Y224376D01*
X279981Y225271D01*
X278623Y225833D01*
X277165Y226025D01*
X275708Y225833D01*
X274349Y225271D01*
X273964Y224975D01*
X219757D01*
Y225584D01*
X208590D01*
Y224778D01*
X134341D01*
X52040Y307079D01*
Y311489D01*
D02*
G37*
G36*
X44094Y211832D02*
X42637Y211641D01*
X41279Y211078D01*
X40112Y210183D01*
X39217Y209017D01*
X38655Y207658D01*
X38463Y206201D01*
X38655Y204743D01*
X39217Y203385D01*
X40112Y202219D01*
X41279Y201324D01*
X42637Y200761D01*
X44094Y200569D01*
X45552Y200761D01*
X46910Y201324D01*
X48077Y202219D01*
X48972Y203385D01*
X49534Y204743D01*
X49726Y206201D01*
X49534Y207658D01*
X48972Y209017D01*
X48077Y210183D01*
X46910Y211078D01*
X45552Y211641D01*
X44094Y211832D01*
D02*
G37*
G36*
X45094Y191902D02*
Y187201D01*
X49796D01*
X49729Y187711D01*
X49146Y189118D01*
X48219Y190326D01*
X47011Y191253D01*
X45604Y191835D01*
X45094Y191902D01*
D02*
G37*
G36*
X43095Y191902D02*
X42585Y191835D01*
X41178Y191253D01*
X39970Y190326D01*
X39043Y189118D01*
X38460Y187711D01*
X38393Y187201D01*
X43095D01*
Y191902D01*
D02*
G37*
G36*
X282949Y186177D02*
X278165D01*
Y181394D01*
X282949D01*
Y186177D01*
D02*
G37*
G36*
X276165D02*
X271382D01*
Y181394D01*
X276165D01*
Y186177D01*
D02*
G37*
G36*
X215173Y185702D02*
Y181000D01*
X219875D01*
X219808Y181510D01*
X219225Y182917D01*
X218298Y184125D01*
X217090Y185052D01*
X215683Y185635D01*
X215173Y185702D01*
D02*
G37*
G36*
X43095Y185201D02*
X38393D01*
X38460Y184691D01*
X39043Y183284D01*
X39970Y182076D01*
X41178Y181149D01*
X42585Y180566D01*
X43095Y180499D01*
Y185201D01*
D02*
G37*
G36*
X49796D02*
X45094D01*
Y180499D01*
X45604Y180566D01*
X47011Y181149D01*
X48219Y182076D01*
X49146Y183284D01*
X49729Y184691D01*
X49796Y185201D01*
D02*
G37*
G36*
X282949Y179394D02*
X278165D01*
Y174610D01*
X282949D01*
Y179394D01*
D02*
G37*
G36*
X276165D02*
X271382D01*
Y174610D01*
X276165D01*
Y179394D01*
D02*
G37*
G36*
X49484Y150902D02*
X44701D01*
Y146118D01*
X49484D01*
Y150902D01*
D02*
G37*
G36*
X42701D02*
X37917D01*
Y146118D01*
X42701D01*
Y150902D01*
D02*
G37*
G36*
X49484Y144118D02*
X44701D01*
Y139335D01*
X49484D01*
Y144118D01*
D02*
G37*
G36*
X42701D02*
X37917D01*
Y139335D01*
X42701D01*
Y144118D01*
D02*
G37*
G36*
X44701Y130820D02*
Y126118D01*
X49402D01*
X49335Y126628D01*
X48753Y128035D01*
X47826Y129243D01*
X46617Y130170D01*
X45211Y130753D01*
X44701Y130820D01*
D02*
G37*
G36*
X42701Y130820D02*
X42191Y130753D01*
X40784Y130170D01*
X39576Y129243D01*
X38649Y128035D01*
X38066Y126628D01*
X37999Y126118D01*
X42701D01*
Y130820D01*
D02*
G37*
G36*
Y124118D02*
X37999D01*
X38066Y123608D01*
X38649Y122201D01*
X39576Y120993D01*
X40784Y120066D01*
X42191Y119483D01*
X42701Y119416D01*
Y124118D01*
D02*
G37*
G36*
X49402D02*
X44701D01*
Y119416D01*
X45211Y119483D01*
X46617Y120066D01*
X47826Y120993D01*
X48753Y122201D01*
X49335Y123608D01*
X49402Y124118D01*
D02*
G37*
G36*
X281374Y111374D02*
X276591D01*
Y106591D01*
X281374D01*
Y111374D01*
D02*
G37*
G36*
X274591D02*
X269807D01*
Y106591D01*
X274591D01*
Y111374D01*
D02*
G37*
G36*
X214779Y111292D02*
Y106591D01*
X219481D01*
X219414Y107100D01*
X218831Y108507D01*
X217904Y109715D01*
X216696Y110642D01*
X215289Y111225D01*
X214779Y111292D01*
D02*
G37*
G36*
X281374Y104591D02*
X276591D01*
Y99807D01*
X281374D01*
Y104591D01*
D02*
G37*
G36*
X274591D02*
X269807D01*
Y99807D01*
X274591D01*
Y104591D01*
D02*
G37*
G36*
X214173Y57128D02*
X212716Y56936D01*
X211357Y56373D01*
X210191Y55478D01*
X209296Y54312D01*
X208734Y52954D01*
X208542Y51496D01*
X208734Y50038D01*
X209296Y48680D01*
X210191Y47514D01*
X211357Y46619D01*
X212716Y46056D01*
X214173Y45864D01*
X215631Y46056D01*
X216989Y46619D01*
X218155Y47514D01*
X219050Y48680D01*
X219432Y49601D01*
X269732D01*
X269757Y49409D01*
X270320Y48050D01*
X271215Y46884D01*
X272381Y45989D01*
X273739Y45426D01*
X275197Y45235D01*
X276654Y45426D01*
X278013Y45989D01*
X279179Y46884D01*
X280074Y48050D01*
X280637Y49409D01*
X280828Y50866D01*
X280637Y52324D01*
X280074Y53682D01*
X279179Y54848D01*
X278013Y55743D01*
X276654Y56306D01*
X275197Y56498D01*
X273739Y56306D01*
X272381Y55743D01*
X271215Y54848D01*
X270320Y53682D01*
X269938Y52762D01*
X219638D01*
X219613Y52954D01*
X219050Y54312D01*
X218155Y55478D01*
X216989Y56373D01*
X215631Y56936D01*
X214173Y57128D01*
D02*
G37*
G36*
X215173Y37198D02*
Y32496D01*
X219875D01*
X219808Y33006D01*
X219225Y34413D01*
X218298Y35621D01*
X217090Y36548D01*
X215683Y37131D01*
X215173Y37198D01*
D02*
G37*
G36*
X213173D02*
X212663Y37131D01*
X211257Y36548D01*
X210048Y35621D01*
X209121Y34413D01*
X208539Y33006D01*
X208471Y32496D01*
X213173D01*
Y37198D01*
D02*
G37*
G36*
X280980Y36650D02*
X276197D01*
Y31866D01*
X280980D01*
Y36650D01*
D02*
G37*
G36*
X274197D02*
X269413D01*
Y31866D01*
X274197D01*
Y36650D01*
D02*
G37*
G36*
X219875Y30496D02*
X215173D01*
Y25794D01*
X215683Y25861D01*
X217090Y26444D01*
X218298Y27371D01*
X219225Y28579D01*
X219808Y29986D01*
X219875Y30496D01*
D02*
G37*
G36*
X213173D02*
X208471D01*
X208539Y29986D01*
X209121Y28579D01*
X210048Y27371D01*
X211257Y26444D01*
X212663Y25861D01*
X213173Y25794D01*
Y30496D01*
D02*
G37*
G36*
X280980Y29866D02*
X276197D01*
Y25083D01*
X280980D01*
Y29866D01*
D02*
G37*
G36*
X274197D02*
X269413D01*
Y25083D01*
X274197D01*
Y29866D01*
D02*
G37*
%LPD*%
D12*
X104678Y699107D02*
Y748019D01*
X86457Y680886D02*
X104678Y699107D01*
X86181Y766516D02*
X104678Y748019D01*
X69291Y695276D02*
X75846D01*
X76457Y695886D01*
X62598Y701968D02*
X69291Y695276D01*
X100394Y770472D02*
Y782283D01*
X86181Y786516D02*
X96161D01*
X100394Y782283D01*
X74193Y791516D02*
X76181D01*
X59842Y777165D02*
X74193Y791516D01*
X59842Y713386D02*
Y777165D01*
Y713386D02*
X67343Y705886D01*
X76457D01*
D39*
X438583Y420472D02*
Y477953D01*
X438504Y402520D02*
X438583Y402441D01*
X438504Y402520D02*
Y420551D01*
X438583Y420472D01*
X420472Y420551D02*
X438504D01*
X435984Y342284D02*
X438583Y339685D01*
X420472Y342284D02*
X435984D01*
X438583Y344882D02*
Y402441D01*
X435984Y342284D02*
X438583Y344882D01*
X284646Y15354D02*
X324803D01*
X438583Y129134D01*
Y477953D02*
Y555118D01*
Y129134D02*
Y339685D01*
X418504Y575197D02*
X438583Y555118D01*
X43701Y145118D02*
Y185807D01*
Y125118D02*
Y145118D01*
X34968Y274416D02*
X46457Y285906D01*
X34968Y235328D02*
Y274416D01*
Y235328D02*
X44094Y226201D01*
X32605Y201442D02*
Y214712D01*
X44094Y226201D01*
Y186201D02*
Y189953D01*
X32605Y201442D02*
X44094Y189953D01*
X43701Y185807D02*
X44094Y186201D01*
X366176Y565320D02*
X366929Y564567D01*
X242520Y668110D02*
X345310Y565320D01*
X366176D01*
D40*
X133465Y15354D02*
X284646D01*
X43701Y105118D02*
X133465Y15354D01*
X420866Y495669D02*
X438583Y477953D01*
D41*
X207087Y731102D02*
Y740551D01*
X195241Y752396D02*
X207087Y740551D01*
X195241Y752396D02*
Y775625D01*
X53858Y285906D02*
X72047Y267717D01*
X46457Y285906D02*
X53858D01*
X89606Y700886D02*
X100394Y711673D01*
Y733858D01*
X28962Y451518D02*
X57483Y480039D01*
X103839Y555217D02*
X118362D01*
X47835Y597638D02*
X52165D01*
X60748Y480039D02*
X61417Y480709D01*
X28962Y299148D02*
X42205Y285906D01*
X358702Y518347D02*
X368702D01*
Y578346D02*
Y588346D01*
X158702Y278346D02*
X168702D01*
X378346Y547244D02*
Y570472D01*
X385433Y577559D01*
X303699Y524968D02*
X361798D01*
X251959Y473228D02*
X303699Y524968D01*
X192913Y473228D02*
X251959D01*
X413867Y522668D02*
X420866Y515669D01*
X361798Y524968D02*
X389843Y553013D01*
Y565354D01*
X419685Y595197D01*
X404724Y553150D02*
Y571888D01*
X406693Y573856D01*
Y574803D01*
X274715Y469178D02*
X328205Y522668D01*
X370492Y362668D02*
X417717Y315443D01*
X168391Y278036D02*
X168702Y278346D01*
X152796Y272441D02*
X158702Y278346D01*
X93307Y272441D02*
X152796D01*
X28962Y388726D02*
X33563Y393327D01*
X28962Y299148D02*
Y388726D01*
X398819Y658268D02*
X413839D01*
X409665Y644095D02*
X443425Y677854D01*
X401575Y644095D02*
X409665D01*
X413839Y658268D02*
X433425Y677854D01*
X351969Y584252D02*
Y641240D01*
X422736Y712008D01*
X364380Y362668D02*
X370492D01*
X358702Y368347D02*
X364380Y362668D01*
X417717Y288976D02*
Y315443D01*
X448819Y290158D02*
Y705925D01*
X442736Y712008D02*
X448819Y705925D01*
X192126Y501968D02*
X219291D01*
X192520Y511024D02*
X219685D01*
X213779Y459683D02*
Y460630D01*
X212205Y458108D02*
X213779Y459683D01*
X212205Y334646D02*
Y458108D01*
X206299Y335944D02*
Y461417D01*
X168702Y298346D02*
X206299Y335944D01*
X198819Y338464D02*
Y462205D01*
X168702Y308347D02*
X198819Y338464D01*
X185039Y785827D02*
X195241Y775625D01*
X67716Y555905D02*
X89625D01*
X35433D02*
X67716D01*
Y553784D02*
Y555905D01*
Y553784D02*
X90049Y531452D01*
X135596D01*
X158702Y508347D01*
X188470Y508114D02*
Y627388D01*
X168702Y488346D02*
X188470Y508114D01*
Y627388D02*
X250066Y688984D01*
X359614D02*
X422205Y751575D01*
X250066Y688984D02*
X359614D01*
X395552Y615197D02*
X419685D01*
X368702Y588346D02*
X395552Y615197D01*
X191236Y469178D02*
X274715D01*
X177746Y482668D02*
X191236Y469178D01*
X158702Y478346D02*
X163023Y482668D01*
X177746D01*
X328205Y522668D02*
X413867D01*
X364380Y404025D02*
X383946D01*
X420472Y440551D01*
X358702Y398346D02*
X364380Y404025D01*
X368702Y388347D02*
X394409D01*
X420472Y362283D01*
X35433Y525906D02*
X67272Y494066D01*
Y443665D02*
X156912Y354025D01*
X67272Y443665D02*
Y494066D01*
X69572Y447476D02*
X158702Y358347D01*
X35433Y535906D02*
X69572Y501766D01*
Y447476D02*
Y501766D01*
X82909Y489764D02*
X118362Y525217D01*
X73622Y489764D02*
X82909D01*
X57483Y480039D02*
X60748D01*
X126605Y472668D02*
X170492D01*
X107480Y453543D02*
X126605Y472668D01*
X108661Y446850D02*
X137206D01*
X158702Y468347D01*
X168702Y458347D02*
X173023Y462668D01*
Y470136D01*
X170492Y472668D02*
X173023Y470136D01*
X35433Y545905D02*
Y555905D01*
X164380Y354025D02*
X168702Y358347D01*
X156912Y354025D02*
X164380D01*
X168702Y508347D02*
X173023Y512668D01*
Y520136D01*
X149932Y543228D02*
X173023Y520136D01*
X94882Y543228D02*
X149932D01*
X28962Y416274D02*
Y451518D01*
Y416274D02*
X33858Y411378D01*
X96850Y548228D02*
X103839Y555217D01*
X94882Y548228D02*
X96850D01*
X92302Y553228D02*
X94882D01*
X89625Y555905D02*
X92302Y553228D01*
X172441Y240945D02*
X264895Y333399D01*
X35433Y555905D02*
Y585236D01*
X47835Y597638D01*
X433081Y678199D02*
X433425Y677854D01*
X433081Y678199D02*
Y711663D01*
X432736Y712008D02*
X433081Y711663D01*
X432736Y712008D02*
Y751043D01*
X431102Y752677D02*
X432736Y751043D01*
X431102Y752677D02*
Y792913D01*
X294882Y784252D02*
X311452Y800822D01*
X423194D02*
X431102Y792913D01*
X311452Y800822D02*
X423194D01*
X264895Y424540D02*
X358702Y518347D01*
X264895Y333399D02*
Y424540D01*
X217323Y51496D02*
X217638Y51181D01*
X278031D01*
X216929Y125591D02*
X278740D01*
X217520Y200197D02*
X280118D01*
X217323Y200000D02*
X217520Y200197D01*
D42*
X278346Y764567D02*
X285898Y757015D01*
X245276Y764567D02*
X262302Y747541D01*
X365730D02*
X411102Y792913D01*
X262302Y747541D02*
X365730D01*
X331018Y752278D02*
X373228Y794488D01*
X274100Y752278D02*
X331018D01*
X261811Y764567D02*
X274100Y752278D01*
X285898Y757015D02*
X315755D01*
X353228Y794488D01*
X332151Y793411D02*
X333228Y794488D01*
X323726Y793411D02*
X332151D01*
X294882Y764567D02*
X323726Y793411D01*
D43*
X274882Y71181D02*
X275197Y70866D01*
X276969Y220197D02*
X277165Y220394D01*
X132362Y220000D02*
X214173D01*
X204259Y136070D02*
X213779Y145591D01*
X275590D01*
X213779D02*
Y166930D01*
X204653Y176057D02*
X213779Y166930D01*
X214173Y71496D02*
Y91733D01*
X204653Y176057D02*
Y203943D01*
X213327Y212617D01*
Y219153D01*
X204259Y101647D02*
Y136070D01*
X215020Y220197D02*
X276969D01*
X47303Y305059D02*
X132362Y220000D01*
X213327Y219153D02*
X214173Y220000D01*
X214488Y71181D02*
X274882D01*
X214173Y71496D02*
X214488Y71181D01*
X204259Y101647D02*
X214173Y91733D01*
D44*
X420472Y342284D02*
D03*
X44094Y226201D02*
D03*
X420866Y495669D02*
D03*
X214173Y71496D02*
D03*
X213779Y145591D02*
D03*
X214173Y220000D02*
D03*
X277165Y180394D02*
D03*
X275590Y105591D02*
D03*
X275197Y30866D02*
D03*
X43701Y145118D02*
D03*
X420472Y420551D02*
D03*
X418504Y575197D02*
D03*
X46457Y305906D02*
D03*
D45*
X420472Y362283D02*
D03*
Y382283D02*
D03*
X44094Y206201D02*
D03*
Y186201D02*
D03*
X420866Y515669D02*
D03*
Y535669D02*
D03*
X214173Y51496D02*
D03*
Y31496D02*
D03*
X213779Y125591D02*
D03*
Y105591D02*
D03*
X214173Y200000D02*
D03*
Y180000D02*
D03*
X277165Y200394D02*
D03*
Y220394D02*
D03*
X275590Y125591D02*
D03*
Y145591D02*
D03*
X275197Y50866D02*
D03*
Y70866D02*
D03*
X43701Y125118D02*
D03*
Y105118D02*
D03*
X431102Y792913D02*
D03*
X411102D02*
D03*
X353228Y794488D02*
D03*
X333228D02*
D03*
X420472Y440551D02*
D03*
Y460551D02*
D03*
X418504Y595197D02*
D03*
Y615197D02*
D03*
X46457Y285906D02*
D03*
Y265905D02*
D03*
D46*
X158702Y518347D02*
D03*
X358702D02*
D03*
X158702Y638346D02*
D03*
X368702Y588346D02*
D03*
D47*
X168702Y518347D02*
D03*
X158702Y508347D02*
D03*
X168702D02*
D03*
X158702Y498347D02*
D03*
X168702D02*
D03*
X158702Y488346D02*
D03*
X168702D02*
D03*
X158702Y478346D02*
D03*
X168702D02*
D03*
X158702Y468347D02*
D03*
X168702D02*
D03*
X158702Y458347D02*
D03*
X168702D02*
D03*
X158702Y448347D02*
D03*
X168702D02*
D03*
X158702Y438346D02*
D03*
X168702D02*
D03*
X158702Y428346D02*
D03*
X168702D02*
D03*
X158702Y418347D02*
D03*
X168702D02*
D03*
X158702Y408347D02*
D03*
X168702D02*
D03*
X158702Y398346D02*
D03*
X168702D02*
D03*
X158702Y388347D02*
D03*
X168702D02*
D03*
X158702Y378346D02*
D03*
X168702D02*
D03*
X158702Y368347D02*
D03*
X168702D02*
D03*
X158702Y358347D02*
D03*
X168702D02*
D03*
X158702Y348346D02*
D03*
X168702D02*
D03*
X158702Y338347D02*
D03*
X168702D02*
D03*
X158702Y328346D02*
D03*
X168702D02*
D03*
X158702Y318347D02*
D03*
X168702D02*
D03*
X158702Y308347D02*
D03*
X168702D02*
D03*
X158702Y298346D02*
D03*
X168702D02*
D03*
X158702Y288347D02*
D03*
X168702D02*
D03*
X158702Y278346D02*
D03*
X168702D02*
D03*
X368702Y518347D02*
D03*
X358702Y508347D02*
D03*
X368702D02*
D03*
X358702Y498347D02*
D03*
X368702D02*
D03*
X358702Y488346D02*
D03*
X368702D02*
D03*
X358702Y478346D02*
D03*
X368702D02*
D03*
X358702Y468347D02*
D03*
X368702D02*
D03*
X358702Y458347D02*
D03*
X368702D02*
D03*
X358702Y448347D02*
D03*
X368702D02*
D03*
X358702Y438346D02*
D03*
X368702D02*
D03*
X358702Y428346D02*
D03*
X368702D02*
D03*
X358702Y418347D02*
D03*
X368702D02*
D03*
X358702Y408347D02*
D03*
X368702D02*
D03*
X358702Y398346D02*
D03*
X368702D02*
D03*
X358702Y388347D02*
D03*
X368702D02*
D03*
X358702Y378346D02*
D03*
X368702D02*
D03*
X358702Y368347D02*
D03*
X368702D02*
D03*
X358702Y358347D02*
D03*
X368702D02*
D03*
X358702Y348346D02*
D03*
X368702D02*
D03*
X358702Y338347D02*
D03*
X368702D02*
D03*
X358702Y328346D02*
D03*
X368702D02*
D03*
X358702Y318347D02*
D03*
X368702D02*
D03*
X358702Y308347D02*
D03*
X368702D02*
D03*
X358702Y298346D02*
D03*
X368702D02*
D03*
X358702Y288347D02*
D03*
X368702D02*
D03*
X358702Y278346D02*
D03*
X368702D02*
D03*
X158702Y628346D02*
D03*
X368702Y578346D02*
D03*
D48*
X35433Y525906D02*
D03*
Y535906D02*
D03*
Y545905D02*
D03*
Y555905D02*
D03*
Y515906D02*
D03*
X33563Y363327D02*
D03*
Y373327D02*
D03*
Y383327D02*
D03*
Y393327D02*
D03*
Y353327D02*
D03*
D49*
X35433Y505905D02*
D03*
X33563Y343327D02*
D03*
D50*
X33858Y441378D02*
D03*
Y486414D02*
D03*
D51*
Y431378D02*
D03*
Y421378D02*
D03*
Y411378D02*
D03*
Y476414D02*
D03*
Y466414D02*
D03*
Y456414D02*
D03*
X422205Y751575D02*
D03*
X412205D02*
D03*
X422736Y712008D02*
D03*
X432736D02*
D03*
X442736D02*
D03*
X423425Y677854D02*
D03*
X433425D02*
D03*
X443425D02*
D03*
D52*
X432205Y751575D02*
D03*
X412736Y712008D02*
D03*
X413425Y677854D02*
D03*
D53*
X63976Y616535D02*
D03*
X41142D02*
D03*
D54*
X52165Y597638D02*
D03*
D55*
X33189Y804528D02*
D03*
Y743504D02*
D03*
X33465Y718898D02*
D03*
Y657874D02*
D03*
D56*
X51181Y796516D02*
D03*
Y751516D02*
D03*
X51457Y710886D02*
D03*
Y665886D02*
D03*
D57*
X76181Y771516D02*
D03*
X86181Y776516D02*
D03*
Y766516D02*
D03*
X76181Y781516D02*
D03*
Y761516D02*
D03*
X86181Y786516D02*
D03*
Y756516D02*
D03*
X76457Y685886D02*
D03*
X86457Y690886D02*
D03*
Y680886D02*
D03*
X76457Y695886D02*
D03*
Y675886D02*
D03*
X86457Y700886D02*
D03*
Y670886D02*
D03*
X118362Y555217D02*
D03*
Y525217D02*
D03*
X119291Y735472D02*
D03*
Y705472D02*
D03*
D58*
X76181Y791516D02*
D03*
X76457Y705886D02*
D03*
D59*
X451102Y792913D02*
D03*
X373228Y794488D02*
D03*
X294882Y764567D02*
D03*
X278346D02*
D03*
X261811D02*
D03*
X245276D02*
D03*
Y784252D02*
D03*
X261811D02*
D03*
X278346D02*
D03*
X168504Y785827D02*
D03*
X185039D02*
D03*
X201575D02*
D03*
X218110D02*
D03*
Y766142D02*
D03*
X201575D02*
D03*
X185039D02*
D03*
X168504D02*
D03*
X151969D02*
D03*
D60*
X294882Y784252D02*
D03*
X151969Y785827D02*
D03*
D61*
X94882Y543228D02*
D03*
Y548228D02*
D03*
D62*
Y553228D02*
D03*
D63*
X128740Y679016D02*
D03*
Y669016D02*
D03*
D64*
X207087Y731102D02*
D03*
X72047Y267717D02*
D03*
X62598Y701968D02*
D03*
X100394Y733858D02*
D03*
X378346Y547244D02*
D03*
X404724Y553150D02*
D03*
X417717Y288976D02*
D03*
X448819Y290158D02*
D03*
X93307Y272441D02*
D03*
X398819Y658268D02*
D03*
X351969Y584252D02*
D03*
X401575Y644095D02*
D03*
X385433Y577559D02*
D03*
X406693Y574803D02*
D03*
X192126Y501968D02*
D03*
X219291D02*
D03*
X192520Y511024D02*
D03*
X219685D02*
D03*
X213779Y460630D02*
D03*
X212205Y334646D02*
D03*
X206299Y461417D02*
D03*
X198819Y462205D02*
D03*
X192913Y473228D02*
D03*
X73622Y489764D02*
D03*
X61417Y480709D02*
D03*
X107480Y453543D02*
D03*
X108661Y446850D02*
D03*
X172441Y240945D02*
D03*
X100394Y770472D02*
D03*
D65*
X366929Y564567D02*
D03*
X242520Y668110D02*
D03*
M02*
