M48
;Layer_Color=9474304
;FILE_FORMAT=2:5
INCH,LZ
;TYPE=PLATED
T1F00S00C0.02800
T3F00S00C0.03346
T4F00S00C0.03543
T5F00S00C0.04016
T6F00S00C0.04685
T8F00S00C0.05000
T9F00S00C0.05118
T10F00S00C0.06299
T11F00S00C0.11811
;TYPE=NON_PLATED
T12F00S00C0.12795
%
T01
X0072047Y0267717
X0093307Y0272441
X0172441Y0240945
X0212205Y0334646
X0417717Y0288976
X0448819Y0290158
X0219291Y0501968
X0219685Y0511024
X019252
X0192126Y0501968
X0192913Y0473228
X0198819Y0462205
X0206299Y0461417
X0213779Y046063
X010748Y0453543
X0108661Y044685
X0073622Y0489764
X0061417Y0480709
X0351969Y0584252
X0385433Y0577559
X0406693Y0574803
X0404724Y055315
X0378346Y0547244
X0401575Y0644095
X0398819Y0658268
X0207087Y0731102
X0100394Y0733858
Y0770472
X0062598Y0701968
T03
X0118362Y0525217
Y0555217
X0119291Y0705472
Y0735472
T04
X0158702Y0278346
Y0288347
Y0298346
Y0308347
Y0318347
Y0328346
Y0338347
Y0348346
Y0358347
Y0368347
X0168702
Y0358347
Y0348346
Y0338347
Y0328346
Y0318347
Y0308347
Y0298346
Y0288347
Y0278346
X0358702
Y0288347
Y0298346
Y0308347
Y0318347
Y0328346
Y0338347
Y0348346
Y0358347
Y0368347
X0368702
Y0358347
Y0348346
Y0338347
Y0328346
Y0318347
Y0308347
Y0298346
Y0288347
Y0278346
Y0378346
Y0388347
Y0398346
Y0408347
Y0418347
Y0428346
Y0438346
Y0448347
Y0458347
Y0468347
Y0478346
Y0488346
Y0498347
Y0508347
Y0518347
X0358702
Y0508347
Y0498347
Y0488346
Y0478346
Y0468347
Y0458347
Y0448347
Y0438346
Y0428346
Y0418347
Y0408347
Y0398346
Y0388347
Y0378346
X0168702
Y0388347
Y0398346
Y0408347
Y0418347
Y0428346
Y0438346
Y0448347
Y0458347
Y0468347
Y0478346
Y0488346
Y0498347
Y0508347
Y0518347
X0158702
Y0508347
Y0498347
Y0488346
Y0478346
Y0468347
Y0458347
Y0448347
Y0438346
Y0428346
Y0418347
Y0408347
Y0398346
Y0388347
Y0378346
X0094882Y0543228
Y0548228
Y0553228
X0086457Y0670886
Y0680886
X0076457Y0675886
X0158702Y0638346
Y0628346
X0368702Y0588346
Y0578346
X0086457Y0690886
Y0700886
X0076457Y0695886
Y0685886
Y0705886
X0076181Y0761516
Y0771516
Y0781516
Y0791516
X0086181Y0786516
Y0776516
Y0766516
Y0756516
T05
X0033563Y0343327
Y0353327
Y0363327
Y0373327
Y0383327
Y0393327
X0035433Y0505905
Y0515906
Y0525906
Y0535906
Y0545905
Y0555905
T06
X0033858Y0411378
Y0421378
Y0431378
Y0441378
Y0456414
Y0466414
Y0476414
Y0486414
X0413425Y0677854
X0423425
X0433425
X0443425
X0442736Y0712008
X0432736
X0422736
X0412736
X0412205Y0751575
X0422205
X0432205
T08
X012874Y0669016
Y0679016
T09
X0214173Y0031496
Y0051496
X0275197Y0050866
Y0030866
Y0070866
X027559Y0105591
Y0125591
Y0145591
X0277165Y0180394
Y0200394
X0214173Y02
Y018
X0213779Y0145591
Y0125591
Y0105591
X0214173Y0071496
X0043701Y0105118
Y0125118
Y0145118
X0044094Y0186201
Y0206201
Y0226201
X0046457Y0265905
Y0285906
Y0305906
X0214173Y022
X0277165Y0220394
X0420472Y0342284
Y0362283
Y0382283
Y0420551
Y0440551
Y0460551
X0420866Y0495669
Y0515669
Y0535669
X0418504Y0575197
Y0595197
Y0615197
X0411102Y0792913
X0431102
X0451102
X0373228Y0794488
X0353228
X0333228
T10
X0033465Y0657874
Y0718898
X0033189Y0743504
Y0804528
T11
X024252Y066811
X0366929Y0564567
T12
X0051457Y0665886
Y0710886
X0051181Y0751516
Y0796516
M30
