G04*
G04 #@! TF.GenerationSoftware,Altium Limited,Altium Designer,19.1.8 (144)*
G04*
G04 Layer_Color=16711935*
%FSLAX25Y25*%
%MOIN*%
G70*
G01*
G75*
%ADD13C,0.00787*%
%ADD15C,0.00394*%
D13*
X100866Y556775D02*
G03*
X100866Y539682I-5984J-8546D01*
G01*
Y556775D01*
D15*
X22933Y500906D02*
Y560906D01*
X47933Y500906D02*
Y560906D01*
X22933Y500906D02*
X47933D01*
X22933Y560906D02*
X47933D01*
X21063Y338327D02*
Y398327D01*
X46063Y338327D02*
Y398327D01*
X21063Y338327D02*
X46063D01*
X21063Y398327D02*
X46063D01*
X22441Y446378D02*
X45276D01*
Y406378D02*
Y446378D01*
X22441Y406378D02*
X45276D01*
X22441D02*
Y446378D01*
Y491414D02*
X45276D01*
Y451414D02*
Y491414D01*
X22441Y451414D02*
X45276D01*
X22441D02*
Y491414D01*
X407205Y740237D02*
Y763071D01*
Y740237D02*
X437205D01*
Y763071D01*
X407205D02*
X437205D01*
X10433Y634252D02*
X67520D01*
X10433Y598819D02*
Y634252D01*
Y598819D02*
X67520D01*
Y634252D01*
X8661Y805197D02*
X92126D01*
Y742835D02*
Y805197D01*
X8661Y742835D02*
X92126D01*
X8661D02*
Y805197D01*
X8937Y719567D02*
X92402D01*
Y657205D02*
Y719567D01*
X8937Y657205D02*
X92402D01*
X8937D02*
Y719567D01*
X407736Y700591D02*
Y723425D01*
X447736D01*
Y700591D02*
Y723425D01*
X407736Y700591D02*
X447736D01*
X408425Y666437D02*
Y689272D01*
X448425D01*
Y666437D02*
Y689272D01*
X408425Y666437D02*
X448425D01*
M02*
